<?xml version="1.0" encoding="UTF-8"?>
<!DOCTYPE svg PUBLIC "-//W3C//DTD SVG 1.1//EN" "http://www.w3.org/Graphics/SVG/1.1/DTD/svg11.dtd">
<!-- Creator: CorelDRAW 2019 (64-Bit) -->
<svg xmlns="http://www.w3.org/2000/svg" xml:space="preserve" width="5.11111in" height="3.31944in" version="1.1" style="shape-rendering:geometricPrecision; text-rendering:geometricPrecision; image-rendering:optimizeQuality; fill-rule:evenodd; clip-rule:evenodd"
viewBox="0 0 5111.11 3319.44"
 xmlns:xlink="http://www.w3.org/1999/xlink">
 <defs>
  <style type="text/css">
   <![CDATA[
    .fil19 {fill:#1D3871}
    .fil11 {fill:#1E3771}
    .fil14 {fill:#1E3871}
    .fil6 {fill:#27B7BD}
    .fil5 {fill:#27B8BD}
    .fil8 {fill:#29367B}
    .fil3 {fill:#2F87C8}
    .fil9 {fill:#2F88C7}
    .fil18 {fill:#57B65E}
    .fil16 {fill:#58B75D}
    .fil2 {fill:#717982}
    .fil4 {fill:#71B944}
    .fil7 {fill:#71BA44}
    .fil1 {fill:#ADA8AE}
    .fil0 {fill:#ADA9AE}
    .fil12 {fill:#B1ADB3}
    .fil13 {fill:#B1AEB3}
    .fil17 {fill:#CED932}
    .fil10 {fill:#CFDA33}
    .fil15 {fill:#D0DA32}
   ]]>
  </style>
 </defs>
 <g id="Layer_x0020_1">
  <metadata id="CorelCorpID_0Corel-Layer"/>
  <path class="fil0" d="M3919.71 1640.89c0,-309.98 297.1,-453.69 523.76,-345.67 43.31,20.64 73.98,47.14 106.51,79.48 130.56,129.81 138.24,387.17 1.97,534.35 -137.65,148.68 -379.79,150.33 -528.44,0.03 -27.59,-27.9 -57.89,-76.25 -72.76,-113.22 -16.68,-41.46 -31.04,-95.83 -31.04,-154.96zm-280.97 -15.82c0,112.54 16.46,202.09 59.3,288.94 40.47,82.04 70.87,119.69 131.63,181 228.91,231 677.74,232.59 908.23,0 61.94,-62.5 91.53,-96.84 134.26,-182.33 99.89,-199.8 74.69,-457.34 -54.14,-639.81 -23.58,-33.41 -45.29,-55.15 -74.19,-84.1 -275.97,-276.43 -831.91,-241.27 -1044.43,180.38 -32.06,63.61 -60.67,162.16 -60.67,255.92z"/>
  <g>
   <path class="fil1" d="M3286.53 1177.88l-3.96 3.95 3.96 -3.95zm-3.96 3.95c-13.31,19.89 -357.24,364.76 -368.04,372 6.39,13.31 14.96,55.92 18.99,72.03 6.32,25.27 12.87,46.98 18.02,73 4.11,20.76 -2.14,23.24 18.01,25.52 10.56,1.19 35.64,-0.37 47.87,-0.38 33.98,-0.02 63.34,0.36 91.65,3.33 94.63,9.92 207.57,35.6 197.13,170.68 -11.3,146.19 -223.21,167.12 -364.78,72.16 -30.88,-20.71 -78.52,-58.59 -98.13,-87.87l-186 174.13c21.45,32.03 52.5,59.18 82.52,83.69 134.97,110.2 338.65,153.48 510.85,117.89 74.32,-15.35 129.06,-43.46 186.31,-86.75 45.75,-34.59 90.57,-100.31 111.85,-161.21 64.62,-184.87 -0.11,-380.98 -187.63,-451.76 -25.6,-9.67 -78.48,-28.21 -110.3,-28.21 6.17,-23.11 79.16,-80.85 97.98,-99.89l126.58 -122.73c97.44,-98.59 76.2,-12.56 76.2,-276.01l-823.13 0 0 233.48 395.91 0.17c56.37,0.35 110.37,-70.52 158.13,-83.27z"/>
  </g>
  <g>
   <path class="fil0" d="M476.79 2092.03l-7.92 3.96 7.92 -3.96zm0 0c8.17,-12.2 169.89,-135.31 194.48,-153.77 80.64,-60.5 221.79,-166.71 289.39,-236.94 9.37,-9.73 10.76,-14.18 19.71,-23.81 50.24,-54 91.08,-130.29 101.76,-206.91 6.86,-49.24 7.02,-123.43 -2.95,-166.96 -78.98,-344.8 -549.46,-353.28 -741.91,-174.25 -9.62,8.95 -14.08,10.37 -23.81,19.72 -19.56,18.8 -96,101.37 -97.87,123.75 17.54,4.68 151.73,123.48 186,146.42 33.87,-24.82 104.91,-163.35 253.36,-162.44 140.56,0.86 187.72,127.67 140.76,239.98 -13.54,32.38 -62.05,95.65 -88.81,116.97l-54.81 48.08c-10.42,8.81 -16.78,14.64 -27.66,23.78l-259.7 211.23c-38.88,31.34 -75.3,60.61 -112.63,93.15 -71.79,62.56 -56.28,24.5 -56.28,153.46 0,14.97 -2.66,93.74 1.82,101.07 8.79,14.37 77.02,5.78 97.11,5.78l779.95 0.34c25.31,0.28 27.63,2.09 27.81,-23.63 0.5,-69.8 -0.46,-140.28 -0.46,-210.2l-435.34 -0.03c-45.17,-0.29 -38.86,1.62 -69.89,17.17 -26.14,13.11 -97.26,52.74 -120.04,58.04z"/>
  </g>
  <path class="fil1" d="M3088.66 303.3l0 304.72c0,32.39 6.12,46.53 11.87,71.23 -93.39,0 -154.71,6.29 -210.38,-34.98 -109.36,-81.07 -109.7,-248.39 0,-329.74 56.67,-42.02 124.17,-31.02 218.29,-31.02 -0.72,0.63 -2.01,0.41 -2.36,1.59 -0.35,1.19 -1.89,1.26 -2.37,1.59 -1.92,1.31 -6.11,3.93 -7.08,4.79 -6,5.36 -7.96,-0.9 -7.96,11.81zm-106.85 427.4l126.63 0 0 -35.61c11.93,13.72 23.81,27.67 45.79,33.36 49.45,12.8 891,6.21 1010.83,6.21l0 -506.54 -55.4 0 0 451.14 -716.29 0c-39.77,0.01 -66.59,-4.17 -102.87,-3.98 -62.5,0.33 -122.54,12.74 -138.55,-19.74 -15.2,-30.83 -7.9,-365.33 -7.9,-427.42 -80.46,0 -174.07,-9.37 -247.7,21.4 -53.59,22.4 -98.81,70.14 -123.01,122.35 -42.04,90.7 -28.37,206.06 39.22,278.76 36.09,38.81 96.26,80.08 169.23,80.08z"/>
  <path class="fil1" d="M4145.28 2820.19c-109.46,0 -101.52,-158.3 -3.96,-158.3 104.69,0 104.71,158.3 3.96,158.3zm292.85 -158.3c21.5,0 45.03,11.26 56.43,22.72 42.11,42.35 27.78,135.57 -60.38,135.57 -97.29,0 -99.23,-158.3 3.96,-158.3zm-1076.41 55.4c0,-45.7 36.61,-75.19 83.11,-75.19l27.7 0 0 142.47 -39.57 0c-37.78,0 -71.23,-29.09 -71.23,-67.28zm201.83 -59.36c0,6.55 8.97,22.23 11.87,27.7 43.53,0 87.08,0.16 130.61,-0.02 87.37,-0.34 79.14,20.7 79.14,98.95l-280.98 0 0 -174.12 -59.36 0c-55.74,0 -114.77,40.53 -114.77,94.98 0,39.52 4.69,68.17 42.62,91.93 22.61,14.16 56.47,22.57 91.78,22.99l578.22 -0.44c53.01,0.02 16.26,31.94 110.53,31.94 38.19,0 65.83,-31.66 75.19,-31.66l118.72 0c33.91,0 15.24,31.66 102.89,31.66 41.7,0 61.82,-31.66 75.19,-31.66l150.38 0 0 -277.02 -31.66 0 0 241.4 -102.89 0c48.14,-100.33 -91.51,-214.28 -183.21,-119.89 -38.19,39.31 -32.06,79.17 -22.57,119.89l-91.02 0c17.28,-32.67 9.27,-76.29 -9.57,-105.19 -62.19,-95.38 -204.13,-41 -204.13,57.7 0,17.94 4.48,32.76 7.91,47.49l-91.02 0 0 -241.4 -35.61 0 0 241.4 -94.98 0c0,-44.64 8.93,-127.22 -71.11,-130.72 -46.71,-2.05 -99.18,0.12 -146.55,0.12 12.95,-24.47 49.66,-86.17 55.41,-110.81l-35.62 0c-6.43,27.59 -55.4,97.2 -55.4,114.76z"/>
  <path class="fil1" d="M896.27 2642.11l27.7 0 0 142.47 -43.54 0c-92.62,0 -97.84,-142.47 15.83,-142.47zm249.31 142.47l-55.4 0c-9.31,-39.95 -34.38,-75.46 -43.53,-114.76 52.2,-34.95 87.01,-39.78 146.42,0l-47.49 114.76zm625.27 0c-28.14,0 -96.9,7.97 -110.88,-23.44 -7.63,-17.13 0.07,1.8 0.07,-16.13l0 -114.76 -31.66 0c0,112.33 14.79,158.29 -67.28,158.29 -17.67,0 -37.87,-16.02 -43.58,-27.65 -9.33,-18.98 -3.91,-103.56 -3.91,-130.64l-35.61 0c0,165.53 12.48,154.33 -106.85,154.33l0 -154.33 -31.66 0 0 154.33 -158.3 0 25.46 -61.6c8.15,-20.5 21.54,-45.93 25.98,-65.04 -58.3,-39.04 -113,-82.1 -199.57,-21.49 -12.97,9.08 -12.11,13.83 -26,17.54 0.43,19.32 16.87,51.98 23.63,67.39 9.28,21.12 17.37,43.48 27.81,63.21l-102.89 0 0 -174.12 -55.41 0c-149.22,0 -190.45,209.74 23.75,209.74 -3.85,46.28 -32.89,54.33 -71.21,47.78 -16.34,-2.79 -20.17,-6.93 -35.64,-8.21 -1.19,14.3 -4.93,18.86 -7.92,31.66 8.89,0.74 146.43,50.87 146.43,-71.23 71.41,0 470.03,7.16 506.75,-7.71 16.82,-6.81 21.21,-18.41 35.41,-27.91 21.84,41.28 83.22,47.19 120.07,29.05 13.73,-6.76 17.68,-16.63 30.31,-25.09 20.4,13.66 20.47,31.66 91.02,31.66l63.32 0 0 -277.02 -31.66 0 0 241.4z"/>
  <path class="fil2" d="M1992.46 1458.85c35.26,23.61 31.66,70.88 31.66,102.89 16.06,-11.77 20.72,-52.24 13.5,-80.77 -9.4,-37.18 -21.44,-38.09 -37.24,-61.69 29.65,6.91 50.46,32.96 58.59,60.13l7.49 28.13c0.23,0.63 0.65,1.92 1.19,2.76 11.69,-50.18 -2.86,-89.12 -45.18,-113.12l-15.59 -8.15c-0.54,-0.29 -1.76,-0.85 -2.56,-1.4 23.26,0 45.68,7.44 61.52,21.58 10.48,9.36 1.69,5.26 13.67,14.04 -1.14,-51.19 -51.07,-63.32 -94.98,-63.32 10.73,-14.64 37.57,-22.33 59.36,-11.87 -9.08,-34 -82.08,-33.49 -91.02,0 -22.38,-16.4 -10.86,-39.11 -27.7,-51.45 -2.15,25.76 -11.38,32.33 -15.83,51.45 -0.94,-0.63 -58.3,-60.68 -98.94,0 28.86,-6.72 53.25,-5.12 67.28,15.83 -30.43,-7.09 -44.21,-5.13 -67.27,7.91 -20.76,11.74 -29.49,25.16 -35.62,51.45 15.53,-10.41 26,-35.62 79.15,-35.62 -21.92,15.23 -36.12,13.02 -56.17,42.76 -18.67,27.69 -11.11,55.91 -11.11,79.91 13.71,-10.04 5.27,-8.53 10.41,-29.15 6.89,-27.64 28.12,-55.17 56.86,-61.86 -22.24,33.22 -55.26,78.06 -29.47,132.36l5.72 10.1c0,-30.59 -0.16,-41.59 7.32,-63.91 5.13,-15.34 17.39,-34.95 28.3,-42.93 -7.81,33.52 -22.58,77.58 10.81,123.73 8.27,11.43 1.31,6.61 12.93,10.82 -10.83,-22.57 -17.42,-100.87 19.79,-110.81 0,56.31 8.69,110.09 3.75,169.96l-8.06 79.5c-7.42,35.61 -28.54,-39.28 -175.99,-61.3 -41.72,-6.23 -124.3,11.68 -140.24,33.45 154.36,-35.97 205.01,11.03 312.63,83.1l-80.31 74.02c-10.16,8.67 -23.48,15.34 -30.49,24.91 -30.61,-20.5 -25.61,-13.34 -51.45,3.96 0,69.59 65.09,34.45 97.79,6.76 8.01,-6.78 12.31,-12.41 19.87,-19.7l68.35 -62.25c18.93,5.06 44.7,34.73 58.37,48.48 128.61,129.37 151.48,35.69 122.36,15.87 -15.8,-10.75 -27.66,-0.22 -38.26,6.88 -5.12,-4.45 2.26,1.23 -6.52,-5.35l-22.21 -17.37c-20.96,-18.78 -69.09,-56.81 -82.08,-76.22 19.07,-12.77 28.78,-24.85 59.54,-43.35 21.47,-12.91 41.8,-25.38 68.52,-34.37 75.93,-25.54 108.25,-22.24 180.61,-5.38 -4.61,-12.73 6.01,-2.66 -11.59,-12.16 -63.04,-34.03 -170.46,-25.36 -235.1,10.83 -20.3,11.36 -53.72,37.63 -65.95,40.9 0,-28.23 -7.92,-57.1 -7.92,-126.63 0,-22.43 0.07,-44.86 -0.01,-67.29 -0.1,-28.48 3.97,-43.57 3.97,-67.26 37.61,10.04 24.94,88.67 19.79,110.81 40.76,-27.3 32.24,-94.14 23.74,-130.59z"/>
  <path class="fil1" d="M1778.77 683.21l-19.79 0c-99.64,0 -186,-90.99 -186,-189.95 0,-90.99 27,-154.37 102.99,-197.77 34.6,-19.76 63.37,-19.89 102.79,-19.89 60.54,0 101.06,30.68 131.67,62.24 106.39,109.69 43.16,345.37 -131.67,345.37zm-269.1 -201.83c0,245.22 299.96,336.6 442.32,181.13l27.95 -35.37c104.31,-158.93 21.23,-406.95 -220.96,-406.95 -140.01,0 -249.31,120.59 -249.31,261.19z"/>
  <path class="fil1" d="M2150.76 299.34c10.46,7.01 72.06,87.67 85.35,104.6 14.95,19.04 27.21,34.89 41.8,53.18 15.15,18.98 29,35.84 43.56,55.37 28.66,38.47 156.4,193.22 169.62,218.2l47.49 0 0 -502.59 -55.4 0c0,27.29 -2.63,355.66 1.5,374.45 3.39,15.43 10.33,23.93 14.33,41.07 -11.37,-7.61 -70.54,-85.97 -83.63,-102.37 -13.94,-17.48 -25.61,-33.6 -39.96,-51.06l-204.88 -262.09 -55.4 0 0 502.59 55.4 0c0,-30.53 3.71,-367.07 -3.22,-388.55 -5.46,-16.9 -11.85,-22.59 -16.56,-42.81z"/>
  <line class="fil1" x1="2150.76" y1="299.34" x2="2499.01" y2= "647.59" />
  <path class="fil1" d="M2499.01 647.59l1.18 1.18c-0.08,-0.07 -1.57,-0.79 -1.18,-1.18z"/>
  <path class="fil1" d="M4501.44 307.26l0 229.53c-50.32,0 -110.59,3.05 -149.33,-28.76 -69.75,-57.25 -58.59,-161.15 25.28,-206.1 40.39,-21.65 92,-18.42 151.75,-18.42 -15.56,13.52 -27.7,8.25 -27.7,23.75zm-253.27 106.85c0,62.8 33.71,111.88 71.93,137.81 45.33,30.76 94.63,40.28 169.47,40.28 1.11,-13.33 3.56,-18.13 11.87,-27.7 0,66.97 9.53,118.72 -94.98,118.72 -44.05,0 -58.85,-14.13 -83.11,-19.79 -5.35,11.14 -15.48,39.75 -15.83,55.4 16.21,1.35 28.19,8.04 43.44,11.97 52.58,13.54 123.85,12.45 163.35,-22.83 23.57,-21.05 42.53,-49.41 42.53,-92.03l0 -387.82c-106.96,0 -224.69,-6.13 -287.3,104.48 -9.69,17.11 -21.37,56.87 -21.37,81.52z"/>
  <path class="fil1" d="M908.15 354.74c0,43.69 11.45,77.74 41.66,100.8 27.94,21.32 52.47,29.21 90.6,40 100.35,28.39 164.54,23.79 164.54,116.43 0,37.24 -52.33,71.23 -91.02,71.23 -65.17,0 -104.31,-3.73 -157.78,-44.05 -11.6,-8.75 -21.06,-19.2 -36.13,-23.23 -9.6,14.33 -23.12,26.83 -31.66,39.57 5.23,7.15 30.05,26.09 38.96,32.27 29.63,20.51 63.84,35.22 99.77,42.69 127.05,26.43 237.22,-33.57 237.22,-118.49 0,-36.5 3.36,-51.62 -15.92,-83.02 -3.66,-5.95 -8.22,-11.79 -14.05,-17.61 -4.51,-4.49 -12.33,-11.21 -16.88,-14.78 -88.71,-69.52 -249.96,-30.55 -249.96,-145.78 0,-47.86 52.38,-75.19 87.06,-75.19 131.48,0 119.73,39.03 166.21,51.44 3.43,-12.84 19.9,-28.78 27.7,-43.54 -27.03,-36.89 -118.6,-63.31 -174.13,-63.31 -84.31,0 -166.21,51.72 -166.21,134.55z"/>
  <path class="fil1" d="M401.6 734.65l51.45 0 54.05 -124.03c19.46,-43.76 34.67,-84.1 54.15,-127.89l109.45 -254.63 -63.31 0c-7.37,15.36 -14.11,33.11 -20.91,50.32 -21.24,53.74 -149.26,346.2 -149.26,369.16 0,19.89 3.56,17.72 3.96,35.62l-189.95 -455.1 -63.32 0 187.35 441.87c8.09,18.19 22.21,46.9 26.35,64.67z"/>
  <path class="fil1" d="M2867.05 2784.57l-55.4 0c-7.89,-33.84 -42.94,-92 -43.54,-118.72 26.4,-7.05 63.13,-51.82 146.43,3.96 -14.81,28 -34.3,87.29 -47.49,114.76zm162.25 0l-126.63 0 37.9 -92.69c5.24,-12.47 8.5,-23.44 13.54,-33.94 -104.79,-70.17 -124.74,-70.17 -229.53,0l51.44 126.64 -106.85 0 0 -174.12 -35.61 0 0 233.48c0,13.59 -2.86,17.89 -13.18,22.7 -13.27,6.19 -13.85,1.41 -30.35,1.04 -2.54,10.88 -5.38,20.78 -7.92,31.66 9.66,0.81 50.88,14.17 73.17,-17.85 8.44,-12.12 13.49,-43.08 13.9,-61.29l391.78 0 0 -277.02 -31.66 0 0 241.4z"/>
  <path class="fil1" d="M2190.33 2642.11l23.74 0 0 142.47c-34.68,0 -66.87,4.38 -91.72,-23.04 -33.35,-36.79 -19.78,-119.43 67.98,-119.43zm-118.72 75.19c0,72.64 68.73,102.9 138.51,102.9l336.38 0 0 -209.74 -31.66 0 0 174.12 -114.77 0 0 -174.12 -31.66 0 0 174.12 -118.72 0 0 -174.12 -55.41 0c-67.28,0 -122.68,40.5 -122.68,106.84z"/>
  <path class="fil1" d="M4738.89 623.84c0,59.93 -32.6,65.33 -75.19,55.41 -4.33,9.04 -14.83,43.44 -15.83,55.4 26.24,0 146.43,32.49 146.43,-110.81l0 -395.74 -55.41 0 0 395.74z"/>
  <polygon class="fil0" points="1355.33,730.69 1414.69,730.69 1414.69,228.11 1355.33,228.11 "/>
  <path class="fil0" d="M745.89 730.69c40.89,0 59.36,5.71 59.36,-11.87l0 -478.84c0,-17.58 -18.47,-11.87 -59.36,-11.87l0 502.59z"/>
  <path class="fil0" d="M219.56 2713.34c0,-36.56 34.18,-71.23 83.11,-71.23l27.7 0 0 142.47c-40.63,0 -110.81,4.48 -110.81,-71.24zm-31.66 -7.91c0,39.98 6.03,70.21 45.05,93.45 53.67,31.98 195.68,21.31 271.54,21.31 9.12,0 11.87,-2.76 11.87,-11.88l0 -197.86 -35.62 0 0 174.12 -118.72 0 0 -174.12 -59.36 0c-55.45,0 -114.76,40.5 -114.76,94.98z"/>
  <path class="fil1" d="M1545.28 3235.72l39.57 0 0 -150.38 34.03 49.07c9.88,14.82 25.01,41.69 37.2,49.86 3.11,-11.65 55.85,-91.29 67.28,-98.93l0 150.38 39.57 0 0 -217.66c-47.06,0 -41.45,-7.41 -73.52,45.2 -11.95,19.6 -23.41,34.98 -33.33,53.73 -25.44,-18.64 -55.46,-98.94 -75.19,-98.94l-35.61 0 0 217.66z"/>
  <path class="fil1" d="M4410.43 3200.1l-71.23 0 0 -55.41c36.09,0 73.02,-4.52 98.93,7.92 5.07,21.74 7.77,47.48 -27.7,47.48zm-19.79 -91.02l-51.44 0 0 -55.41c33.8,0 62.15,-4.04 87.06,7.92 3.83,16.46 14.87,47.48 -35.62,47.48zm-91.02 126.64c61.59,0 182.04,15.56 182.04,-51.45 0,-22.05 -0.27,-56.09 -39.57,-59.36 16.63,-22.69 27.7,-7.8 27.7,-59.36 0,-62.62 -114.85,-47.49 -170.17,-47.49l0 217.66z"/>
  <path class="fil0" d="M540.11 3223.84c0,16.16 12.41,11.87 43.54,11.87l0 -146.43 103.32 130.17c13.83,19.28 7.07,16.26 47.06,16.26l0 -217.66 -39.57 0 0 142.47c-11.02,-7.38 -107.83,-131.33 -110.8,-142.47l-43.54 0 0 205.78z"/>
  <path class="fil1" d="M3219.25 3200.1l-35.61 0 0 -146.43c53.79,0 114.76,-5.09 114.76,83.11 0,32.65 -33.03,63.31 -79.15,63.31zm-79.15 35.62c77.66,0 124.86,11.82 169.26,-32.57 70.24,-70.24 18.52,-185.09 -74.28,-185.09l-94.98 0 0 217.66z"/>
  <path class="fil1" d="M1113.93 3200.1l-35.62 0 0 -146.43c34.97,0 66.74,-4.56 92.2,18.61 40.95,37.26 30.58,127.81 -56.59,127.81zm-79.15 35.62c77.66,0 124.86,11.82 169.26,-32.57 69.69,-69.69 19.84,-185.09 -74.28,-185.09l-94.98 0 0 217.66z"/>
  <path class="fil1" d="M3915.75 3124.91l-51.44 0 0 -71.24c36.08,0 98.93,-9.33 98.93,35.62 0,8.47 -7.44,21.39 -13.44,26.14 -7.1,5.64 -22.2,9.48 -34.05,9.48zm-94.98 110.81l43.53 0 0 -75.19 47.49 0c5.65,21.17 40.8,50.15 47.49,75.19l47.49 0c-4.07,-15.25 -44.18,-66.35 -55.4,-83.1 72.97,-17 72.7,-134.56 -23.74,-134.56l-106.85 0 0 217.66z"/>
  <path class="fil1" d="M1311.8 3124.91c0,-99.29 146.43,-96.92 146.43,0 0,22.71 -8.96,42.31 -20.56,54.63 -6.49,6.9 -10.87,10.99 -20.12,15.49 -57.95,28.15 -105.74,-19.53 -105.74,-70.12zm67.28 114.76c161.33,0 162.99,-225.57 0,-225.57 -144.18,0 -145.22,225.57 0,225.57z"/>
  <path class="fil1" d="M2012.25 3049.72c71.69,0 95.11,83.41 57.91,129.14 -35.46,43.58 -120.87,29.82 -128.3,-46.98 -4.06,-41.97 31.83,-82.17 70.39,-82.17zm-110.81 63.32c0,32.29 -2.62,39.76 11.7,67.45 52.65,101.83 217.83,65.3 217.83,-51.62 0,-31.45 -13.78,-60.21 -28.77,-78.08 -61.7,-73.56 -200.76,-29.34 -200.76,62.25z"/>
  <path class="fil1" d="M781.51 3113.04c0,38.48 -1.72,65.9 32.45,98.14 38.08,35.93 107.97,37.17 153.33,8.49 11.57,-7.31 5.77,-7.86 20,-11.66l0 -94.98 -94.98 0 0 35.61 55.4 0c0,25.11 10.19,55.41 -55.4,55.41 -107.02,0 -86.28,-195.96 35.23,-146.03 16.02,6.57 13.75,11.61 28.09,15.43 19.6,-29.27 18.21,-16.67 19.79,-35.61 -34.71,-9.27 -12.94,-23.75 -94.98,-23.75 -47.3,0 -98.93,51.64 -98.93,98.93z"/>
  <path class="fil1" d="M215.6 3235.72l43.53 0c0,-58.07 -8.85,-67.85 31.66,-94.98 5.79,8.64 10.11,12.13 17.56,22.01l53.67 72.97 47.49 0c-2.94,-11.02 -33.83,-47.76 -44.66,-62.19l-46.36 -60.49 64.26 -70.29c9.09,-9.77 15.55,-13.85 22.8,-24.69 -57.87,0 -40.09,-5.4 -84.09,38.59 -21.26,21.25 -46.54,53.74 -62.33,64.31l0 -102.89 -43.53 0 0 217.66z"/>
  <path class="fil1" d="M2760.2 3069.5l7.91 0c1.08,12.96 25.42,67.35 31.66,79.15l-71.23 0c4.57,-19.62 26.56,-57.27 31.66,-79.15zm-110.81 166.21l43.53 0c3.62,-15.52 13.25,-37.83 19.79,-51.45l102.89 0c4.39,18.84 15.74,34.09 19.79,51.45l43.53 0 -94.98 -221.61 -39.57 0 -94.98 221.61z"/>
  <path class="fil0" d="M4719.1 3065.55c2.65,11.36 11.71,29.86 17.18,42.18 6.75,15.16 11.43,27.69 18.44,40.92l-71.23 0 35.61 -83.1zm-114.76 170.17l43.53 0c1,-11.94 14.75,-41.93 19.79,-51.45l102.89 0c3.61,15.52 13.25,37.83 19.79,51.45l43.53 0 -48.59 -109.71c-16.2,-37.91 -32.12,-77.45 -50.35,-111.9l-35.61 0c-5.02,21.56 -90.89,204.05 -94.98,221.61z"/>
  <path class="fil1" d="M3674.35 3065.55c2.42,10.4 11.91,30.98 17.16,42.2 6.61,14.14 11.92,28.56 18.46,40.9l-71.23 0c3.31,-14.2 11.06,-28.75 16.93,-42.43l18.69 -40.67zm-114.77 170.17l43.53 0c1,-11.94 14.76,-41.93 19.79,-51.45l102.89 0c2.68,11.5 14.68,40.81 19.79,51.45l43.53 0c-5.03,-9.51 -7.49,-17.74 -11.94,-27.64l-87 -193.98 -35.61 0 -47.43 110.87c-8.39,18.69 -15.69,36.41 -23.92,55.22 -6,13.71 -20.51,42.11 -23.64,55.52z"/>
  <path class="fil1" d="M4149.24 3065.55c0.56,0.79 1.23,1.17 1.44,2.52 0.28,1.84 2.34,4.18 2.81,5.1l31.37 75.48 -71.23 0 35.61 -83.1zm-110.81 170.17l39.57 0c6.54,-13.62 16.17,-35.93 19.79,-51.45l102.89 0c5.03,9.52 18.79,39.51 19.79,51.45l43.53 0 -84.36 -196.61c-12.04,-26.38 -1.89,-25 -38.32,-25 -11.71,0 -14.08,10.69 -18.25,21.33l-61.01 140.81c-5.67,12.95 -22.5,45.83 -23.64,59.47z"/>
  <path class="fil1" d="M2898.7 3144.69c0,62.41 36.41,94.98 98.94,94.98 111.52,0 91.02,-123.24 91.02,-221.61l-39.57 0c0,87.14 16.24,180.43 -52.2,185.04 -76.76,5.17 -58.61,-107.54 -58.61,-185.04l-39.57 0 0 126.63z"/>
  <path class="fil1" d="M2467.35 3073.46c0,92.26 122.68,55.42 122.68,102.9 0,17.74 -17.36,27.7 -35.62,27.7 -34.19,0 -50.99,-14.15 -71.23,-27.7 -9.23,6.76 -20.81,20.67 -23.74,31.65 9.11,2.44 84.52,61.06 148.86,14.31 21.3,-15.48 46.17,-80.49 -27.74,-107.73 -19.28,-7.1 -70.48,-12.91 -73.63,-37.18 -0.81,-6.26 5.67,-27.7 35.62,-27.7 28.26,0 41.06,14.91 59.36,19.79 9.17,-6.72 16.74,-18.56 19.79,-31.65 -12.73,-3.4 -76.13,-47.23 -130.89,-8.22 -9.9,7.05 -23.44,27.72 -23.44,43.83z"/>
  <polygon class="fil0" points="2174.51,3235.72 2218.04,3235.72 2218.04,3148.65 2324.89,3148.65 2324.89,3109.08 2218.04,3109.08 2218.04,3053.67 2340.72,3053.67 2340.72,3018.06 2174.51,3018.06 "/>
  <path class="fil0" d="M623.21 2642.11c88.63,0 75.19,29.06 75.19,142.47l-142.46 0 0 35.62 174.13 0 0 -134.55c0,-40.45 -34.74,-75.19 -75.19,-75.19l-31.66 0 0 31.65z"/>
  <path class="fil3" d="M1458.22 2305.74c25.32,0 82.45,-14.11 106.85,-19.79 0,-18.07 -14.71,-96.28 -19.79,-106.85 -14.28,3.33 -98.33,18.01 -102.7,22.96 -6.44,7.3 -2.55,-0.44 -1.67,9.47 1.38,15.59 17.31,66.71 17.31,94.21z"/>
  <path class="fil4" d="M2427.78 2285.95c2.85,-12.22 15.2,-101.82 12.92,-106.06 -3.8,-7.06 -26.98,-6.3 -48.54,-8.71 -67.2,-7.5 -56.56,-19.05 -64.04,42.81 -0.87,7.19 -7.94,49.85 -5.33,54.23 5.4,9.1 22.91,7.17 49.26,10.15 16.62,1.88 39.53,6.24 55.74,7.59z"/>
  <path class="fil5" d="M1153.5 1906.04l94.98 43.54c8.26,-15.61 16.66,-31.93 23.19,-48.04 7.35,-18.15 19.87,-33.76 20.34,-54.85 -30.14,-7.02 -74.7,-37.55 -98.94,-39.57 -6.54,28.09 -37.63,75.52 -39.57,98.94z"/>
  <path class="fil6" d="M1137.67 1395.53c3.21,13.8 15.76,33.07 23.95,47.28 8.76,15.21 19.14,31.9 27.5,47.69l94.98 -51.44c-8.37,-15.83 -15.69,-29.35 -25.43,-45.8 -7.55,-12.77 -23,-36.23 -26.02,-49.17 -11.89,2.77 -14.94,5.13 -24.56,11.06l-70.42 40.39z"/>
  <path class="fil7" d="M1517.58 1094.77c0,-29.33 9.29,-75.84 11.87,-106.85 -21.79,-0.49 -53.63,-5.83 -78.94,-8.4 -18.16,-1.84 -25.3,-10.29 -30.94,5.09l-9.37 82.93c-0.22,21.19 4.5,18.9 23.94,19.63 28.82,1.08 53.55,7.59 83.43,7.59z"/>
  <path class="fil3" d="M2305.1 972.1c0,35.57 15.83,68.87 15.83,106.84 38.87,0 71.38,-15.04 106.85,-15.82 0,-24.59 -3.7,-34.43 -6.83,-52.54 -3.17,-18.32 -8.63,-37.82 -9,-54.31 -36.4,0 -70.45,15.83 -106.85,15.83z"/>
  <path class="fil8" d="M2570.24 1415.32l73.84 33.01c11.09,5.23 12.83,7.67 25.09,10.53 7.15,-30.7 35.26,-63.43 43.53,-98.93 -28.24,-6.58 -69.87,-36.76 -98.93,-43.54 -6.77,29.07 -36.95,70.69 -43.53,98.93z"/>
  <path class="fil7" d="M1853.96 892.95l40.62 34.57c13.44,13.51 24.86,24.78 38.53,36.66 3.61,-2.41 67.71,-65.96 71.23,-79.15 -8.61,-12.86 -22.5,-26.22 -35.03,-36.2 -14.57,-11.62 -27.28,-26.41 -40.16,-35.03l-75.19 79.15z"/>
  <path class="fil9" d="M2574.2 1826.89c17.19,32.49 34.5,62.95 51.44,94.98 31.9,-16.88 62.87,-34.46 94.98,-51.44 -16.98,-32.11 -34.57,-63.09 -51.44,-94.98l-94.98 51.44z"/>
  <path class="fil10" d="M1869.79 2380.93c10.32,6.91 65.15,56.24 75.19,71.23l75.19 -79.15c-4.54,-6.77 -67.06,-68 -79.15,-71.23 -8.93,5.98 -9.82,9.87 -17.03,18.59 -6.38,7.72 -12.43,12.9 -19.57,20 -16.37,16.29 -21.85,21.48 -34.63,40.57z"/>
  <path class="fil0" d="M4438.13 145l0 31.66 118.72 0 0 -43.54 -71.23 0c0,-33.39 -6.23,-27.7 55.41,-27.7l0 -39.57 -44.85 0c-33.34,2.26 -58.04,15.47 -58.04,79.15z"/>
  <path class="fil0" d="M1889.57 2808.31c0,17.38 35.62,17.38 35.62,0l0 -265.14 -35.62 0 0 265.14z"/>
  <polygon class="fil0" points="3148.02,2820.19 3179.68,2820.19 3179.68,2543.17 3148.02,2543.17 "/>
  <polygon class="fil0" points="4762.63,2820.19 4794.29,2820.19 4794.29,2543.17 4762.63,2543.17 "/>
  <polygon class="fil0" points="4529.15,3235.72 4568.72,3235.72 4568.72,3018.06 4529.15,3018.06 "/>
  <polygon class="fil1" points="3389.42,3235.72 3429,3235.72 3429,3018.06 3389.42,3018.06 "/>
  <polygon class="fil0" points="445.13,3235.72 484.7,3235.72 484.7,3018.06 445.13,3018.06 "/>
  <path class="fil5" d="M1667.96 1027.5c-28.23,-0.63 -53.3,-7.92 -87.06,-7.92 -4.07,17.51 -6.39,43.33 -8.37,63.56 -2.44,24.98 -10.51,21.1 40.74,26.76 52.47,5.8 45.89,23.45 54.7,-82.41z"/>
  <path class="fil3" d="M1240.56 1767.53l79.15 35.62c7.3,-13.79 34.35,-67.88 35.62,-83.1 -30.34,-7.07 -49.74,-24.81 -79.15,-31.66 -12.83,24.25 -22.78,54.9 -35.62,79.15z"/>
  <path class="fil7" d="M1438.43 2056.42c0,14.8 9.9,77.96 15.07,82.89 7.69,7.32 51.3,-11.66 83.86,-11.66 0,-22.93 -10.89,-65.86 -15.83,-87.06 -20.39,0.45 -63.35,11.22 -83.11,15.83z"/>
  <path class="fil11" d="M2182.42 1102.69c12.78,0 78.78,-10.72 83.2,-15.37 6.99,-7.36 -9.67,-73.7 -11.96,-83.56 -12.46,0 -78.95,10.91 -82.85,15.03 -5.42,5.72 1.41,26.99 4.04,40.03 2.38,11.72 6.54,31.39 7.58,43.88z"/>
  <path class="fil12" d="M1967.83 990.99c4.7,15.16 48.63,53.78 64.21,64.21 24.48,-36.55 41.1,-41.96 55.41,-63.31 -10.81,-16.14 -46.69,-48.23 -63.32,-59.36l-56.3 58.46z"/>
  <path class="fil6" d="M2182.42 2230.54c18.52,0.41 69.93,7.88 87.06,11.87 4.93,-21.15 9.96,-64.03 11.87,-87.06 -17.13,-4 -68.54,-11.46 -87.06,-11.87 -0.41,18.52 -7.88,69.93 -11.87,87.06z"/>
  <path class="fil13" d="M1509.67 1150.17c-29.69,-2.46 -51.78,-7.91 -87.06,-7.91 -4.08,17.5 -6.39,43.33 -8.37,63.55 -2.76,28.22 -8.34,19.97 41.2,26.31 51.2,6.56 44.91,7.09 46.64,-14.24 1.81,-22.14 2.93,-47.69 7.59,-67.71z"/>
  <path class="fil6" d="M1600.69 2171.18c2.23,26.78 13.6,56.33 15.83,83.11 17.58,0 76.54,-10.78 87.06,-15.83 -4.6,-19.76 -15.38,-62.72 -15.83,-83.1 -22.93,0 -65.85,10.89 -87.06,15.82z"/>
  <path class="fil11" d="M2344.67 2111.82c29.07,0 52.43,7.92 87.06,7.92 0,-31.04 7.91,-53.21 7.91,-87.07 -33.85,0 -56.02,-7.91 -87.06,-7.91 0,33.84 -7.91,56.02 -7.91,87.06z"/>
  <path class="fil10" d="M1307.84 1957.48c30.34,7.07 49.74,24.81 79.15,31.66 6.21,-11.74 12.44,-23.56 18.12,-37.28 6.31,-15.29 14.33,-28.25 17.5,-41.86 -24.91,-5.8 -56.98,-31.08 -83.1,-31.66 -1.8,21.63 -25.95,54.65 -31.66,79.15z"/>
  <path class="fil5" d="M1984.55 2262.2c2.13,3.18 51.47,52.24 63.32,55.4 3.37,-2.46 52.47,-54.98 55.4,-59.36 -14.8,-22.09 -41.01,-44.43 -63.32,-59.36 -0.9,0.66 -52.09,50.91 -55.4,63.32z"/>
  <path class="fil5" d="M2443.61 1352c26.59,6.19 52.56,29.42 79.15,35.62 3.4,-14.6 10.36,-24.74 17.18,-38.22 7.41,-14.68 11.49,-27.8 18.44,-40.93l-79.15 -35.61c-10.38,19.62 -30.41,56.79 -35.62,79.15z"/>
  <path class="fil6" d="M2447.56 1890.21c13.51,25.53 26.19,49.89 39.57,75.19 19.56,-1.63 25.68,-10.31 40.88,-18.49 15.73,-8.46 24.54,-11.89 38.27,-21.08 -8.99,-17 -36.04,-60.01 -39.57,-75.2 -20.34,4.74 -58.33,34.02 -79.15,39.58z"/>
  <path class="fil5" d="M2506.93 1700.26c8.75,16.53 35.48,59.86 39.57,75.19 17.62,-1.46 25.02,-10.64 40.86,-18.5 15.76,-7.82 24.48,-13.77 38.28,-21.08 -13.39,-25.31 -26.06,-49.65 -39.57,-75.19 -24.5,5.71 -56.48,33.52 -79.15,39.58z"/>
  <path class="fil4" d="M2506.93 1541.96l79.15 35.62c3.24,-13.93 10.56,-24.67 16.38,-39.02 5.46,-13.45 12.32,-27.07 19.23,-40.13l-79.15 -35.62c-8.49,16.05 -34.12,61.17 -35.62,79.15z"/>
  <path class="fil5" d="M2328.84 1134.35c3.44,14.77 5.65,26.21 8.45,43 2.26,13.56 7.04,28.81 7.38,44.06 22.48,-5.24 63.95,-13.91 87.06,-15.83 -2.24,-26.89 -13.59,-60.17 -15.83,-87.06 -22.48,5.24 -63.95,13.91 -87.06,15.83z"/>
  <path class="fil14" d="M1292.01 1336.17c4.17,17.91 28.5,54.26 39.57,75.19 15.15,-3.53 58.36,-30.67 75.19,-39.57 -3.53,-15.14 -30.67,-58.35 -39.57,-75.19 -17.91,4.17 -54.26,28.5 -75.19,39.57z"/>
  <path class="fil7" d="M1232.65 1526.13l43.53 79.15c23.64,-15.84 51.79,-27.87 75.19,-43.54 -9.64,-18.22 -35.87,-59.29 -39.57,-75.19 -25.18,5.87 -53.96,33.71 -79.15,39.57z"/>
  <path class="fil8" d="M1766.9 991.88l60.26 62.43 59.42 -57.51c-4.57,-14.73 -47.34,-55.58 -60.32,-64.27 -24.11,16.15 -34.42,42.66 -59.36,59.36z"/>
  <path class="fil4" d="M1782.72 2266.16c19.59,13.11 41.22,40.6 63.32,55.4 23.16,-15.51 28.94,-38.99 59.36,-59.36l-63.32 -59.36c-17.87,11.97 -47.06,44.95 -59.36,63.32z"/>
  <path class="fil13" d="M2241.78 1933.74c-6.35,6.35 -3.86,11.31 -6.85,32.87 -4.79,34.59 -16.51,34.18 50.14,39.6 13.62,1.1 14,9.46 19.43,-33.63 1.59,-12.63 5.11,-26.98 0.69,-31.43 -5.65,-5.69 -40.85,-7.85 -51.11,-8.14 -15.08,-0.41 -5.36,-6.21 -12.3,0.73z"/>
  <path class="fil4" d="M1664 1233.28c28.66,0 39.63,3.96 67.28,3.96 0.44,-19.62 7.48,-47.65 7.91,-67.28 -65.77,0 -75.19,-38.15 -75.19,63.32z"/>
  <path class="fil8" d="M1671.92 2028.72c0.52,23 10.02,44.97 11.87,67.27 23,-0.51 44.97,-10.01 67.28,-11.87 -0.51,-23.01 -10.02,-44.98 -11.87,-67.28 -23,0.52 -44.97,10.02 -67.28,11.87z"/>
  <path class="fil13" d="M2138.89 2190.96c1.77,-21.31 7.91,-43.32 7.91,-67.27 -20.49,0 -47.93,-6.31 -67.28,-7.91 -5.62,67.58 -32.08,75.19 59.36,75.19z"/>
  <path class="fil5" d="M2115.15 1173.93c3.98,17.06 11.45,48.31 11.87,67.27 21.04,-1.75 45.16,-10.03 67.28,-11.87 0,-15.57 -7.07,-57.27 -11.87,-67.28 -15.85,0.35 -52.02,8.31 -67.28,11.87z"/>
  <path class="fil3" d="M2316.97 1431.15l63.31 27.7c5.63,-24.19 22.07,-39.14 27.7,-63.32 -24.18,-5.63 -39.14,-22.07 -63.32,-27.7 -2.97,12.76 -7.31,18.77 -13.21,30.32 -6.35,12.42 -9.12,21.8 -14.49,33z"/>
  <path class="fil9" d="M1774.81 1138.31c0,-28.66 3.96,-39.64 3.96,-67.28 -15.24,0 -54.06,-4.83 -67.28,-7.91 0,67.26 -37.34,75.19 63.32,75.19z"/>
  <path class="fil15" d="M2411.95 1466.77l63.32 27.7c5.63,-24.19 22.07,-39.14 27.7,-63.32 -24.18,-5.63 -39.14,-22.07 -63.32,-27.7 -3.06,13.14 -7.35,18.22 -13.23,30.3 -6.03,12.39 -8.61,21.94 -14.47,33.02z"/>
  <path class="fil5" d="M1406.78 1541.96c10.79,20.39 20.87,38.97 31.66,59.36 13,-3.46 45.21,-24.17 59.36,-31.65 -3.41,-14.61 -23.61,-47.34 -31.66,-59.37 -15.38,3.59 -44.39,23.74 -59.36,31.66z"/>
  <path class="fil15" d="M1572.98 2056.42c4.19,17.99 11.87,46.79 11.87,67.27 18.96,-0.43 50.21,-7.9 67.27,-11.87 0,-17.03 -6.83,-56.78 -11.87,-67.27 -22.31,1.85 -44.27,11.36 -67.28,11.87z"/>
  <path class="fil15" d="M1624.43 1158.09c-20.49,0 -47.93,-6.31 -67.28,-7.92 -1.71,76.94 -27.31,66.98 22.96,72.08 30.83,3.13 44.31,23.98 44.31,-64.16z"/>
  <path class="fil4" d="M2115.15 2088.07c21.8,0 49.45,3.76 67.28,7.91 0.51,-22.91 7.91,-45.79 7.91,-71.23 -15.58,0 -57.83,-3.38 -67.28,-7.92 -1.95,23.48 -7.91,44.04 -7.91,71.23z"/>
  <path class="fil10" d="M2316.97 1830.84c2.7,11.62 24.91,49.29 31.66,59.37 20.32,-4.73 35.13,-22.06 59.36,-27.7 -4.52,-19.41 -22.37,-45.75 -31.66,-63.31 -20.39,10.79 -38.97,20.87 -59.36,31.65z"/>
  <path class="fil8" d="M1327.63 1656.72c10.46,5.54 18.54,7.65 30.35,13.18 12.78,5.96 19.13,11.3 32.96,14.52 3.63,-15.6 20.35,-49.44 27.7,-63.32l-63.31 -27.7 -27.7 63.31z"/>
  <path class="fil10" d="M1406.78 1727.96c15.59,3.63 49.43,20.35 63.31,27.7 9.82,-20.46 17.88,-42.85 27.7,-63.32 -10.46,-5.53 -18.54,-7.65 -30.35,-13.17 -12.78,-5.97 -19.13,-11.31 -32.96,-14.53l-27.7 63.32z"/>
  <path class="fil12" d="M1442.39 1981.22c13.88,7.35 47.72,24.07 63.32,27.7 4.73,-20.29 22.04,-42.85 23.74,-63.31 -10.49,-5.04 -18.59,-7.11 -30.33,-13.2 -12.3,-6.38 -15.86,-10.17 -32.99,-10.54 -5.17,22.17 -19.17,39.76 -23.74,59.36z"/>
  <path class="fil3" d="M1553.2 1945.61c0,20.48 7.68,49.27 11.87,67.27 22.3,-1.86 44.27,-11.36 67.28,-11.87 -4.19,-18 -11.87,-46.79 -11.87,-67.27 -20.48,0 -49.28,7.68 -67.28,11.87z"/>
  <path class="fil7" d="M2225.95 2099.95c23.48,1.96 44.04,7.91 71.23,7.91 0,-21.8 3.76,-49.45 7.91,-67.27 -21.38,-0.48 -48.96,-7.92 -71.23,-7.92 0,17.9 -2.61,56.23 -7.91,67.28z"/>
  <path class="fil10" d="M2214.08 1146.22c1.84,22.12 10.12,46.24 11.87,67.28 18.96,-0.42 50.21,-7.9 67.28,-11.87 -1.84,-22.12 -10.12,-46.24 -11.87,-67.27 -22.3,1.85 -44.27,11.36 -67.28,11.87z"/>
  <path class="fil12" d="M2364.46 1569.66c24.18,5.63 39.14,22.06 63.32,27.7 4.47,-19.19 19.05,-46.97 27.7,-63.31l-63.32 -27.71c-5.54,10.46 -7.65,18.54 -13.18,30.35 -5.97,12.78 -11.3,19.13 -14.52,32.97z"/>
  <path class="fil5" d="M1549.24 1320.34c19.63,0.44 47.65,7.48 67.28,7.92l4.69 -54.97c0.04,-1.33 0.11,-4.92 0.08,-5.97 -0.2,-6.88 1.72,-0.97 -0.81,-6.34 -9.45,-4.53 -51.69,-7.91 -67.28,-7.91 0,25.87 -3.96,38.41 -3.96,67.27z"/>
  <path class="fil16" d="M1458.22 1866.46c23.8,5.54 35.89,21.47 63.32,23.75 5.16,-22.17 19.18,-39.75 23.74,-59.37 -18.45,-9.76 -41.18,-22.54 -63.32,-27.7 -4.73,20.29 -22.04,42.85 -23.74,63.31z"/>
  <path class="fil4" d="M1426.56 1300.56c5.06,18.95 23.13,35.8 27.7,55.41 14.45,-1.2 48.51,-23.82 63.32,-31.66 -7.93,-14.97 -28.08,-43.98 -31.66,-59.36 -13.3,3.1 -52.58,26.37 -59.36,35.61z"/>
  <path class="fil3" d="M1893.53 2187.01c18.08,12.11 35.43,25.52 47.49,43.54 11.78,-7.89 43.95,-38.2 47.49,-51.44 -2.8,-3.83 -42.7,-40.33 -47.49,-43.53 -13.43,8.99 -38.89,38.6 -47.49,51.44z"/>
  <path class="fil6" d="M1359.28 1830.84l63.32 27.71 27.7 -63.32 -63.32 -27.7c-3.63,15.6 -20.35,49.43 -27.7,63.31z"/>
  <path class="fil13" d="M2340.72 1272.86c4.07,17.45 10.31,44.53 11.87,63.31 27.22,0 42.06,-7.91 67.28,-7.91 0,-11.33 -8.29,-64.9 -13.31,-67.91 -4.5,-2.7 -56.98,8.25 -65.84,12.51z"/>
  <path class="fil4" d="M2245.74 1324.3c27.21,0 42.06,-7.92 67.28,-7.92 0,-21.46 -7.55,-52.67 -11.87,-71.23 -39.61,19.01 -68.34,-3.22 -64.43,27.83 0.85,6.72 2.33,12.38 3.33,17.29 2.82,13.73 5.4,20.6 5.7,34.02z"/>
  <path class="fil11" d="M2360.5 1692.33c10.8,20.41 21.05,39.31 31.66,59.36 14.28,-3.81 45.18,-24.15 59.36,-31.65 -3.11,-11.66 -24.77,-49.08 -31.66,-59.37 -9.72,5.15 -18.09,8.88 -29.08,14.45 -12.94,6.57 -18.64,11.05 -30.28,17.2z"/>
  <path class="fil9" d="M1351.37 1454.9c1.41,16.87 22.19,49.18 31.66,63.32 14.97,-7.93 43.98,-28.07 59.36,-31.67 -10.79,-20.38 -20.87,-38.97 -31.66,-59.36 -24.23,5.65 -39.04,22.97 -59.36,27.7z"/>
  <path class="fil10" d="M1450.31 1399.49c1.85,22.27 22.18,38.68 27.7,59.37 16.87,-1.4 49.18,-22.19 63.32,-31.66 -11.2,-16.73 -21.97,-37.09 -31.66,-55.41 -12.83,1.07 -46.22,20.75 -59.36,27.7z"/>
  <path class="fil17" d="M2443.61 1640.89l63.32 27.7c5.54,-23.8 21.46,-35.9 23.74,-63.31l-59.36 -27.7c-5.63,24.18 -22.07,39.14 -27.7,63.31z"/>
  <path class="fil18" d="M2340.72 1933.74c1.07,12.83 20.75,46.22 27.7,59.36 26.39,-2.19 41.03,-22.51 63.32,-27.7 -10.79,-20.39 -20.87,-38.98 -31.66,-59.37 -22.4,5.22 -41.21,22.85 -59.36,27.7z"/>
  <path class="fil12" d="M1810.43 2103.91c7.05,10.52 15.35,17.2 24.72,26.72 10.7,10.89 13.73,19.35 30.69,20.77 5.62,-21.05 28.38,-30.78 39.57,-47.49 -8.99,-13.43 -38.61,-38.89 -51.45,-47.48 -12.11,18.08 -25.51,35.42 -43.53,47.48z"/>
  <path class="fil8" d="M2415.91 1775.44c10.8,20.4 21.05,39.31 31.66,59.36 24.23,-5.65 39.04,-22.97 59.36,-27.71 -1.05,-12.62 -24.01,-51.9 -31.66,-63.31 -10.29,6.88 -47.71,28.55 -59.36,31.66z"/>
  <path class="fil15" d="M1718.53 2158.44c10.91,15.85 34.41,36.22 48.37,48.35l47.49 -51.44c-16.06,-10.76 -34.65,-32.28 -51.45,-43.54l-44.41 46.63z"/>
  <path class="fil17" d="M1955.9 2102.96c9.7,14.02 14.04,13.62 25.65,23.74 9.18,7.98 16.43,15.21 22.78,24.7 10.42,-6.98 17.61,-14.59 26.04,-25.41 8.71,-11.19 17.74,-16.09 21.45,-30 -21.05,-5.61 -30.78,-28.38 -47.49,-39.57l-48.44 46.54z"/>
  <path class="fil7" d="M2054.83 1097.78c3.53,4.81 47.45,45.13 52.39,48.43 22.63,-33.79 31.68,-33.74 43.53,-51.44l-46.62 -44.41 -49.3 47.42z"/>
  <path class="fil15" d="M1880.79 1070.17l45.28 47.48c9.65,-6.17 16.32,-14.48 25.85,-23.85 10.89,-10.7 19.35,-13.73 20.76,-30.69 -21.05,-5.62 -30.78,-28.39 -47.49,-39.57l-44.41 46.62z"/>
  <path class="fil10" d="M1802.51 1146.22l47.49 43.53 46.63 -44.41c-5.78,-9.04 -12.91,-14.85 -21.88,-23.86 -9.53,-9.58 -14.63,-19 -28.7,-22.75l-43.53 47.48z"/>
  <path class="fil5" d="M1964.76 1150.17l44.41 46.63 47.56 -45.68 -47.49 -49.39c-7.29,5.19 -39.82,41.48 -44.48,48.43z"/>
  <path class="fil0" d="M4089.88 794.01c0,56.98 -9.96,47.49 55.4,47.49l0 -59.36c-38.63,0 -55.4,-5.36 -55.4,11.87z"/>
  <path class="fil0" d="M3983.03 794.01c0,56.98 -9.96,47.49 55.4,47.49l0 -59.36c-38.63,0 -55.4,-5.36 -55.4,11.87z"/>
  <polygon class="fil0" points="3088.66,176.67 3144.06,176.67 3144.06,121.26 3088.66,121.26 "/>
  <polygon class="fil0" points="2981.81,176.67 3037.21,176.67 3037.21,121.26 2981.81,121.26 "/>
  <path class="fil12" d="M1762.94 1257.03c50.81,0 48.8,18.81 52.71,-27.34 1.42,-16.76 11.25,-18.7 -25,-20.8 -17.49,-1.01 -26.35,-12.99 -27.71,48.14z"/>
  <path class="fil13" d="M2039.95 2008.93c0,19.89 -3.56,17.72 -3.96,35.62 53.2,0 49.76,24.27 55.41,-43.54 -24.3,-2.02 -11.49,-3.96 -51.45,-3.96l0 11.87z"/>
  <path class="fil5" d="M2316.97 1636.93c11.92,6.31 29.76,16.58 43.53,19.79 7.36,-13.91 12.24,-29.28 19.78,-43.53 -11.92,-6.31 -29.76,-16.58 -43.53,-19.79 -6.31,11.92 -16.58,29.76 -19.79,43.53z"/>
  <path class="fil11" d="M1497.8 1775.44c12.16,6.43 32.93,16.39 47.49,19.79 4.53,-19.45 12.02,-27.18 15.83,-43.54 -11.92,-6.31 -29.76,-16.57 -43.53,-19.79 -7.19,14.97 -11.99,28.79 -19.79,43.54z"/>
  <path class="fil7" d="M2301.14 1510.3c19.24,4.49 23,14.13 43.53,15.83 6.31,-11.92 16.58,-29.76 19.79,-43.53 -21.24,-4.95 -22.52,-15.27 -47.49,-15.83 -3.81,16.35 -11.3,24.08 -15.83,43.53z"/>
  <path class="fil7" d="M1553.2 1379.71c8.11,15.33 15.63,28.19 23.74,43.53 14.62,-7.74 28.27,-15.67 43.53,-23.75 -6.38,-9.52 -20.68,-32.06 -23.74,-43.53 -14.62,7.74 -28.27,15.67 -43.53,23.75z"/>
  <path class="fil4" d="M1481.96 1648.81c14.97,7.18 28.79,11.98 43.53,19.79 8.81,-37.8 33.67,-39.19 -0.76,-54.65 -10.65,-4.78 -13.64,-7.57 -26.94,-8.67 -4.48,19.24 -14.12,23 -15.83,43.53z"/>
  <path class="fil5" d="M2237.82 1858.55c4.17,15.63 15.23,23.96 19.79,43.53 19.89,-4.63 21.6,-14.67 43.53,-19.79 -1.41,-16.91 -8.63,-22.46 -19.79,-43.53 -13.77,3.21 -31.61,13.48 -43.53,19.79z"/>
  <path class="fil18" d="M2028.08 1237.24c14.6,3.9 24.24,16.62 31.66,27.7l32.59 -30.72c-5.08,-16.48 -20.67,-28.57 -32.59,-36.55 -12.49,8.36 -30.07,20.5 -31.66,39.57z"/>
  <path class="fil12" d="M1569.03 1858.55c0.4,18.07 6.51,30.59 7.91,47.48 16.89,-1.41 29.41,-7.51 47.49,-7.91 -0.4,-18.07 -6.51,-30.6 -7.91,-47.49 -17.94,0 -32.75,4.49 -47.49,7.92z"/>
  <path class="fil13" d="M1493.84 1494.47c3.06,11.46 17.36,34 23.74,43.53 13.14,-8.81 26.43,-14.95 39.57,-23.74 -4.63,-19.89 -14.68,-21.61 -19.79,-43.54 -15.26,8.08 -28.91,16.01 -43.53,23.75z"/>
  <path class="fil4" d="M1660.05 1949.57c0,21.14 3.99,34.61 7.91,51.44 13.57,-6.51 33.92,-5.36 47.49,-11.87 -16.06,-68.93 2.37,-39.57 -55.4,-39.57z"/>
  <path class="fil13" d="M2301.14 1743.79c3.21,13.76 13.48,31.6 19.79,43.53 19.56,-4.56 27.9,-15.61 43.53,-19.79 -5.11,-21.93 -15.15,-23.65 -19.79,-43.53 -19.57,4.55 -27.9,15.61 -43.53,19.79z"/>
  <path class="fil13" d="M2154.72 1989.14l47.4 4.72c0.47,-18.02 4.05,-25.54 4.05,-48.25 -25.56,-5.96 -16.85,-3.96 -47.49,-3.96 0,19.84 -3.96,24.37 -3.96,47.49z"/>
  <path class="fil12" d="M2150.76 1268.9c2.96,12.72 7.59,28.75 7.92,43.53 23.13,0 27.65,-3.96 47.49,-3.96 0,-11.78 -1.89,-44.87 -8.89,-48.59 -4.18,-2.22 -39.48,5.64 -46.52,9.02z"/>
  <path class="fil19" d="M1900.52 2047.57c8.92,12.85 21,28.43 36.55,32.59 9.41,-6.3 25.18,-25.94 31.66,-35.61 -11.51,-7.71 -23.3,-19.46 -35.61,-27.7l-32.59 30.73z"/>
  <path class="fil11" d="M1648.17 1312.43c21.61,1.8 10.8,3.96 47.49,3.96 0.35,-15.6 3.95,-17.41 3.95,-47.48l-47.4 -4.73c-0.47,18.02 -4.05,25.54 -4.05,48.26z"/>
  <path class="fil16" d="M2241.78 1359.92l4.72 47.39c17.86,0.09 38.57,-2.01 50.68,-7.83 -16.06,-68.92 2.37,-39.57 -55.41,-39.57z"/>
  <path class="fil12" d="M1774.81 2032.67c21.12,5.64 14.49,18.11 35.61,23.75 4.94,-3.63 23.89,-25.97 27.7,-31.66l-30.73 -32.59c-13.42,9.29 -31,21.44 -32.59,40.5z"/>
  <polygon class="fil7" points="1900.52,1204.65 1932.17,1238.17 1965.7,1206.51 1934.04,1172.99 "/>
  <path class="fil0" d="M2400.07 2875.6c0,9.12 2.76,11.87 11.87,11.87l23.74 0 0 -35.61 -35.62 0 0 23.75z"/>
  <path class="fil1" d="M2510.88 2863.72c0,27.09 -2.52,23.74 35.62,23.74l0 -35.61c-25.46,0 -35.62,-3.52 -35.62,11.87z"/>
  <path class="fil0" d="M433.26 2887.46c38.14,0 35.61,3.35 35.61,-23.74 0,-15.39 -10.15,-11.87 -35.61,-11.87l0 35.61z"/>
  <path class="fil0" d="M3417.12 2566.92c0,17.37 35.62,17.37 35.62,0l0 -23.75 -35.62 0 0 23.75z"/>
  <path class="fil0" d="M274.96 2566.92c0,17.37 35.61,17.37 35.61,0l0 -23.75 -35.61 0 0 23.75z"/>
  <path class="fil0" d="M2214.08 2566.92c0,17.37 35.62,17.37 35.62,0l0 -23.75 -35.62 0 0 23.75z"/>
  <polygon class="fil0" points="2348.63,2887.46 2380.29,2887.46 2380.29,2851.85 2348.63,2851.85 "/>
  <polygon class="fil0" points="488.66,2887.46 520.32,2887.46 520.32,2851.85 488.66,2851.85 "/>
  <path class="fil1" d="M2162.63 2578.79l19.79 0c9.12,0 11.87,-2.75 11.87,-11.87l0 -23.75 -31.66 0 0 35.61z"/>
  <path class="fil0" d="M330.37 2578.79l19.79 0c9.12,0 11.87,-2.75 11.87,-11.87l0 -23.75 -31.66 0 0 35.61z"/>
  <path class="fil0" d="M3472.53 2578.79l19.79 0c9.11,0 11.87,-2.75 11.87,-11.87l0 -23.75 -31.66 0 0 35.61z"/>
 </g>
</svg>
