<?xml version="1.0" encoding="utf-8"?>
<!-- Generator: Adobe Illustrator 25.0.0, SVG Export Plug-In . SVG Version: 6.00 Build 0)  -->
<svg version="1.1" id="Layer_1" xmlns:xodm="http://www.corel.com/coreldraw/odm/2003"
	 xmlns="http://www.w3.org/2000/svg" xmlns:xlink="http://www.w3.org/1999/xlink" x="0px" y="0px" viewBox="0 0 653.7 122"
	 style="enable-background:new 0 0 653.7 122;" xml:space="preserve">
<style type="text/css">
	.st0{fill:#00A89F;}
	.st1{fill:#FFFFFF;}
	.st2{fill-rule:evenodd;clip-rule:evenodd;fill:#3C3D3D;}
	.st3{fill-rule:evenodd;clip-rule:evenodd;fill:#FFFFFF;}
	.st4{fill-rule:evenodd;clip-rule:evenodd;fill:#00A89F;}
</style>
<g id="Layer_x0020_1">
	<g id="_2165949218144">
		<path class="st0" d="M164.5,74.3c-5.5,0-9.7-1.5-12.7-4.5c-3-3-4.6-7.3-4.6-12.9V35.5h8.8v21c0,6.8,2.8,10.3,8.5,10.3
			c2.8,0,4.9-0.8,6.3-2.5c1.5-1.7,2.2-4.2,2.2-7.8v-21h8.7v21.4c0,5.6-1.5,9.9-4.6,12.9C174.2,72.8,170,74.3,164.5,74.3L164.5,74.3z
			 M214.8,73.6L207.5,63H207h-7.7v10.6h-8.8V35.5H207c3.4,0,6.3,0.6,8.8,1.7c2.5,1.1,4.4,2.7,5.8,4.8c1.3,2.1,2,4.5,2,7.4
			c0,2.8-0.7,5.3-2,7.3c-1.4,2.1-3.3,3.6-5.8,4.7l8.6,12.3H214.8L214.8,73.6z M214.7,49.3c0-2.1-0.7-3.8-2.1-4.9
			c-1.4-1.1-3.4-1.7-6.1-1.7h-7.2V56h7.2c2.7,0,4.7-0.6,6.1-1.7C214,53,214.7,51.4,214.7,49.3L214.7,49.3z M258.6,53.8
			c2.2,0.7,3.9,1.8,5.1,3.5c1.2,1.6,1.9,3.6,1.9,6c0,3.3-1.3,5.9-3.9,7.7c-2.6,1.8-6.4,2.7-11.4,2.7h-19.7V35.5h18.6
			c4.7,0,8.2,0.9,10.7,2.7c2.5,1.8,3.7,4.2,3.7,7.3c0,1.9-0.4,3.5-1.3,5C261.5,51.8,260.2,52.9,258.6,53.8z M239.4,42.1v9h8.8
			c2.2,0,3.8-0.4,5-1.1c1.1-0.8,1.7-1.9,1.7-3.4c0-1.5-0.6-2.6-1.7-3.4c-1.1-0.7-2.8-1.1-5-1.1L239.4,42.1L239.4,42.1z M249.7,67
			c2.3,0,4.1-0.4,5.3-1.1c1.2-0.8,1.8-1.9,1.8-3.5c0-3.2-2.3-4.7-7-4.7h-10.3V67C239.4,67,249.7,67,249.7,67z M297.5,65.4h-17.7
			l-3.4,8.2h-9.1l17-38.2h8.7l17.1,38.2h-9.3L297.5,65.4L297.5,65.4z M294.7,58.7l-6.1-14.6l-6.1,14.6H294.7z M349.1,35.5v38.2h-7.3
			l-19-23.2v23.2h-8.7V35.5h7.3l19,23.2V35.5C340.4,35.5,349.1,35.5,349.1,35.5z"/>
		<path class="st1" d="M374.2,35.5c4.9,0,8.8,1.2,11.7,3.5c2.8,2.4,4.3,5.6,4.3,9.8s-1.4,7.4-4.3,9.8c-2.8,2.4-6.7,3.5-11.7,3.5
			h-9.4v11.6h-5.5V35.5L374.2,35.5L374.2,35.5z M374.1,57.3c3.5,0,6.1-0.7,7.9-2.2c1.8-1.5,2.7-3.6,2.7-6.4c0-2.8-0.9-4.9-2.7-6.4
			c-1.8-1.5-4.5-2.2-7.9-2.2h-9.3v17.1L374.1,57.3L374.1,57.3z M423.7,73.6l-8.2-11.7c-1,0.1-1.8,0.1-2.4,0.1h-9.4v11.6h-5.5V35.5
			H413c4.9,0,8.8,1.2,11.7,3.5c2.8,2.4,4.3,5.6,4.3,9.8c0,2.9-0.7,5.5-2.2,7.5c-1.5,2.1-3.5,3.6-6.2,4.5l9.1,12.8H423.7L423.7,73.6z
			 M412.9,57.4c3.5,0,6.1-0.7,7.9-2.2c1.8-1.5,2.7-3.6,2.7-6.4c0-2.8-0.9-4.9-2.7-6.4c-1.8-1.5-4.5-2.2-7.9-2.2h-9.3v17.2H412.9z
			 M455,74.1c-3.9,0-7.3-0.8-10.4-2.5c-3.1-1.7-5.5-4-7.3-7c-1.8-3-2.6-6.3-2.6-10s0.9-7,2.6-10c1.8-3,4.2-5.3,7.3-7
			c3.1-1.7,6.6-2.5,10.4-2.5c3.8,0,7.3,0.8,10.4,2.5c3.1,1.7,5.5,4,7.3,7c1.7,3,2.6,6.3,2.6,10s-0.9,7-2.6,10c-1.7,3-4.2,5.3-7.3,7
			C462.3,73.2,458.8,74.1,455,74.1z M455,69.2c2.8,0,5.3-0.6,7.6-1.9c2.2-1.3,4-3,5.3-5.3c1.3-2.2,1.9-4.7,1.9-7.5
			c0-2.8-0.6-5.3-1.9-7.5c-1.3-2.2-3.1-4-5.3-5.3c-2.2-1.3-4.8-1.9-7.6-1.9c-2.8,0-5.3,0.6-7.6,1.9c-2.3,1.3-4.1,3-5.3,5.3
			c-1.3,2.2-1.9,4.7-1.9,7.5c0,2.8,0.6,5.3,1.9,7.5c1.3,2.2,3.1,4,5.3,5.3C449.7,68.6,452.2,69.2,455,69.2z M487.7,74.1
			c-2.3,0-4.4-0.5-6.4-1.4c-2-1-3.5-2.3-4.7-4.1l3.2-3.7c2.1,3,4.8,4.5,8,4.5c2.1,0,3.8-0.7,4.9-2c1.1-1.3,1.7-3.2,1.7-5.8V40.2
			h-13.8v-4.7h19.2v25.9c0,4.2-1,7.4-3,9.5C494.6,73,491.6,74.1,487.7,74.1L487.7,74.1z M538.4,68.9v4.7h-27.7V35.5h26.9v4.7h-21.5
			v11.7h19.1v4.6h-19.1v12.3L538.4,68.9L538.4,68.9z M564.2,74.1c-3.8,0-7.3-0.8-10.3-2.5c-3.1-1.7-5.5-4-7.2-7
			c-1.7-3-2.6-6.3-2.6-10c0-3.7,0.9-7,2.6-10c1.7-3,4.2-5.3,7.3-7c3.1-1.7,6.5-2.5,10.4-2.5c3,0,5.7,0.5,8.2,1.5
			c2.5,1,4.6,2.5,6.3,4.4l-3.5,3.4c-2.9-3-6.5-4.5-10.7-4.5c-2.8,0-5.4,0.6-7.7,1.9c-2.3,1.3-4.1,3-5.4,5.3
			c-1.3,2.2-1.9,4.7-1.9,7.5c0,2.8,0.6,5.3,1.9,7.5c1.3,2.2,3.1,4,5.4,5.3c2.3,1.3,4.9,1.9,7.7,1.9c4.3,0,7.8-1.5,10.7-4.6l3.5,3.4
			c-1.7,2-3.9,3.5-6.4,4.5C569.9,73.5,567.2,74.1,564.2,74.1L564.2,74.1z M593.7,40.2h-13.1v-4.7h31.6v4.7h-13.1v33.4h-5.4V40.2z
			 M628.7,74.1c-2.9,0-5.6-0.4-8.3-1.3c-2.7-0.9-4.8-2-6.3-3.5l2-4.3c1.5,1.3,3.3,2.4,5.6,3.2c2.3,0.8,4.6,1.2,7,1.2
			c3.2,0,5.5-0.5,7.1-1.6c1.6-1.1,2.3-2.5,2.3-4.3c0-1.3-0.4-2.4-1.3-3.2c-0.9-0.8-1.9-1.4-3.2-1.9s-3-0.9-5.3-1.5
			c-2.9-0.7-5.2-1.4-7-2.1c-1.8-0.7-3.3-1.8-4.5-3.2c-1.3-1.4-1.9-3.4-1.9-5.8c0-2,0.5-3.9,1.6-5.5c1.1-1.6,2.7-2.9,4.9-3.9
			c2.2-1,4.9-1.5,8.1-1.5c2.3,0,4.5,0.3,6.7,0.9c2.2,0.6,4.1,1.4,5.6,2.5l-1.8,4.4c-1.6-1-3.3-1.8-5.1-2.3c-1.8-0.5-3.6-0.8-5.3-0.8
			c-3.1,0-5.4,0.6-7,1.7c-1.5,1.1-2.3,2.6-2.3,4.4c0,1.3,0.4,2.4,1.3,3.2c0.9,0.8,2,1.5,3.2,1.9c1.3,0.5,3,0.9,5.3,1.4
			c2.9,0.7,5.2,1.4,6.9,2.1c1.7,0.7,3.2,1.7,4.5,3.2c1.3,1.4,1.9,3.3,1.9,5.7c0,2-0.5,3.8-1.6,5.5c-1.1,1.7-2.7,3-5,3.9
			C634.7,73.6,632,74.1,628.7,74.1L628.7,74.1z"/>
	</g>
	<g id="_2165949216992">
		<path class="st1" d="M157.2,88.7h-6.7l-1.4,3.1h-1.9l5.7-12.5h1.8l5.7,12.5h-1.9L157.2,88.7L157.2,88.7z M156.6,87.2l-2.7-6.1
			l-2.7,6.1L156.6,87.2L156.6,87.2z M167.2,82.2c0.9,0,1.8,0.2,2.5,0.6c0.7,0.4,1.3,1,1.7,1.7c0.4,0.7,0.6,1.6,0.6,2.5
			c0,1-0.2,1.8-0.6,2.5c-0.4,0.7-1,1.3-1.7,1.7s-1.6,0.6-2.5,0.6c-0.7,0-1.4-0.1-1.9-0.4c-0.6-0.3-1.1-0.7-1.5-1.2v1.5h-1.7V78.5
			h1.7v5.2c0.4-0.5,0.9-0.9,1.4-1.1C165.9,82.3,166.5,82.2,167.2,82.2L167.2,82.2z M167,90.4c0.6,0,1.2-0.1,1.7-0.4
			c0.5-0.3,0.9-0.7,1.2-1.2c0.3-0.5,0.4-1.1,0.4-1.7s-0.1-1.2-0.4-1.7c-0.3-0.5-0.7-0.9-1.2-1.2c-0.5-0.3-1-0.4-1.7-0.4
			c-0.6,0-1.1,0.1-1.6,0.4c-0.5,0.3-0.9,0.7-1.2,1.2c-0.3,0.5-0.4,1.1-0.4,1.7s0.1,1.2,0.4,1.7c0.3,0.5,0.7,0.9,1.2,1.2
			C165.9,90.3,166.4,90.4,167,90.4z M183.4,78.5v13.3h-1.7v-1.5c-0.4,0.5-0.9,0.9-1.5,1.2c-0.6,0.3-1.2,0.4-1.9,0.4
			c-0.9,0-1.8-0.2-2.5-0.6c-0.7-0.4-1.3-1-1.7-1.7c-0.4-0.7-0.6-1.6-0.6-2.5c0-1,0.2-1.8,0.6-2.5c0.4-0.7,1-1.3,1.7-1.7
			s1.6-0.6,2.5-0.6c0.7,0,1.3,0.1,1.9,0.4c0.6,0.3,1.1,0.6,1.4,1.1v-5.2L183.4,78.5L183.4,78.5z M178.5,90.4c0.6,0,1.1-0.1,1.6-0.4
			c0.5-0.3,0.9-0.7,1.2-1.2c0.3-0.5,0.4-1.1,0.4-1.7s-0.1-1.2-0.4-1.7c-0.3-0.5-0.7-0.9-1.2-1.2c-0.5-0.3-1-0.4-1.6-0.4
			c-0.6,0-1.2,0.1-1.7,0.4c-0.5,0.3-0.9,0.7-1.2,1.2c-0.3,0.5-0.4,1.1-0.4,1.7s0.1,1.2,0.4,1.7c0.3,0.5,0.7,0.9,1.2,1.2
			C177.3,90.3,177.9,90.4,178.5,90.4z M195.6,82.3v9.5H194v-1.4c-0.3,0.5-0.8,0.9-1.4,1.1c-0.6,0.3-1.2,0.4-1.9,0.4
			c-1.3,0-2.3-0.3-3-1c-0.7-0.7-1.1-1.7-1.1-3.1v-5.5h1.7v5.3c0,0.9,0.2,1.6,0.7,2.1c0.4,0.5,1.1,0.7,1.9,0.7c0.9,0,1.6-0.3,2.2-0.8
			c0.5-0.5,0.8-1.3,0.8-2.3v-4.9H195.6L195.6,82.3z M198.9,78.5h1.7v13.3h-1.7V78.5z M217.5,91.8l-2.7-3.8c-0.3,0-0.6,0-0.8,0h-3.1
			v3.8h-1.8V79.3h4.9c1.6,0,2.9,0.4,3.9,1.2c0.9,0.8,1.4,1.8,1.4,3.2c0,1-0.2,1.8-0.7,2.5s-1.2,1.2-2.1,1.5l3,4.2L217.5,91.8
			L217.5,91.8z M214,86.5c1.1,0,2-0.2,2.6-0.7c0.6-0.5,0.9-1.2,0.9-2.1c0-0.9-0.3-1.6-0.9-2.1c-0.6-0.5-1.5-0.7-2.6-0.7h-3.1v5.6
			L214,86.5L214,86.5z M225.3,82.2c1.3,0,2.3,0.3,3,1c0.7,0.6,1.1,1.6,1.1,2.9v5.7h-1.6v-1.3c-0.3,0.4-0.7,0.8-1.2,1
			c-0.5,0.2-1.2,0.3-1.9,0.3c-1.1,0-1.9-0.3-2.6-0.8c-0.6-0.5-1-1.2-1-2c0-0.8,0.3-1.5,0.9-2c0.6-0.5,1.6-0.8,2.9-0.8h2.7V86
			c0-0.7-0.2-1.3-0.6-1.7c-0.4-0.4-1.1-0.6-1.9-0.6c-0.6,0-1.1,0.1-1.7,0.3s-1,0.4-1.4,0.7l-0.7-1.3c0.5-0.4,1.1-0.7,1.8-0.9
			C223.9,82.3,224.6,82.2,225.3,82.2L225.3,82.2z M225,90.6c0.7,0,1.2-0.1,1.7-0.4c0.5-0.3,0.8-0.7,1-1.2v-1.3H225
			c-1.5,0-2.2,0.5-2.2,1.5c0,0.5,0.2,0.9,0.6,1.1S224.3,90.6,225,90.6z M237.8,82.2c1.2,0,2.2,0.3,2.9,1c0.7,0.7,1.1,1.7,1.1,3.1
			v5.5H240v-5.3c0-0.9-0.2-1.6-0.7-2.1c-0.4-0.5-1.1-0.7-1.9-0.7c-0.9,0-1.7,0.3-2.2,0.8c-0.5,0.5-0.8,1.3-0.8,2.3v4.9h-1.7V78.5
			h1.7v5.1c0.4-0.5,0.8-0.8,1.4-1.1C236.4,82.3,237,82.2,237.8,82.2L237.8,82.2z M256.9,82.2c1.2,0,2.2,0.3,2.9,1
			c0.7,0.7,1.1,1.7,1.1,3.1v5.5h-1.7v-5.3c0-0.9-0.2-1.6-0.6-2.1c-0.4-0.5-1-0.7-1.8-0.7c-0.9,0-1.6,0.3-2.1,0.8
			c-0.5,0.5-0.8,1.3-0.8,2.3v4.9H252v-5.3c0-0.9-0.2-1.6-0.6-2.1c-0.4-0.5-1-0.7-1.8-0.7c-0.9,0-1.6,0.3-2.1,0.8
			c-0.5,0.5-0.8,1.3-0.8,2.3v4.9h-1.7v-9.5h1.7v1.4c0.3-0.5,0.8-0.9,1.4-1.1c0.6-0.3,1.2-0.4,1.9-0.4c0.7,0,1.4,0.1,2,0.4
			c0.6,0.3,1,0.7,1.3,1.3c0.4-0.5,0.9-1,1.5-1.3C255.4,82.4,256.1,82.2,256.9,82.2L256.9,82.2z M267.5,82.2c1.3,0,2.3,0.3,3,1
			c0.7,0.6,1.1,1.6,1.1,2.9v5.7H270v-1.3c-0.3,0.4-0.7,0.8-1.2,1c-0.5,0.2-1.2,0.3-1.9,0.3c-1.1,0-1.9-0.3-2.6-0.8
			c-0.6-0.5-1-1.2-1-2c0-0.8,0.3-1.5,0.9-2c0.6-0.5,1.6-0.8,2.9-0.8h2.7V86c0-0.7-0.2-1.3-0.6-1.7c-0.4-0.4-1.1-0.6-1.9-0.6
			c-0.6,0-1.1,0.1-1.7,0.3s-1,0.4-1.4,0.7l-0.7-1.3c0.5-0.4,1.1-0.7,1.8-0.9S266.7,82.2,267.5,82.2L267.5,82.2z M267.1,90.6
			c0.7,0,1.2-0.1,1.7-0.4c0.5-0.3,0.8-0.7,1-1.2v-1.3h-2.7c-1.5,0-2.2,0.5-2.2,1.5c0,0.5,0.2,0.9,0.6,1.1
			C265.9,90.4,266.5,90.6,267.1,90.6L267.1,90.6z M279.9,82.2c1.2,0,2.2,0.3,2.9,1c0.7,0.7,1.1,1.7,1.1,3.1v5.5h-1.7v-5.3
			c0-0.9-0.2-1.6-0.7-2.1c-0.4-0.5-1.1-0.7-1.9-0.7c-0.9,0-1.7,0.3-2.2,0.8c-0.5,0.5-0.8,1.3-0.8,2.3v4.9h-1.7v-9.5h1.7v1.4
			c0.3-0.5,0.8-0.9,1.4-1.1C278.5,82.4,279.2,82.2,279.9,82.2L279.9,82.2z M303.9,91.8l0-9.1l-4.6,7.6h-0.8l-4.6-7.6v9.1h-1.7V79.3
			h1.5l5.3,8.8l5.2-8.8h1.5l0,12.5H303.9L303.9,91.8z M318.1,82.3v9.5h-1.6v-1.4c-0.3,0.5-0.8,0.9-1.4,1.1c-0.6,0.3-1.2,0.4-1.9,0.4
			c-1.3,0-2.3-0.3-3-1c-0.7-0.7-1.1-1.7-1.1-3.1v-5.5h1.7v5.3c0,0.9,0.2,1.6,0.7,2.1c0.4,0.5,1.1,0.7,1.9,0.7c0.9,0,1.6-0.3,2.2-0.8
			c0.5-0.5,0.8-1.3,0.8-2.3v-4.9H318.1L318.1,82.3z M326.5,82.2c1.2,0,2.2,0.3,2.9,1c0.7,0.7,1.1,1.7,1.1,3.1v5.5h-1.7v-5.3
			c0-0.9-0.2-1.6-0.7-2.1c-0.4-0.5-1.1-0.7-1.9-0.7c-0.9,0-1.7,0.3-2.2,0.8c-0.5,0.5-0.8,1.3-0.8,2.3v4.9h-1.7V78.5h1.7v5.1
			c0.4-0.5,0.8-0.8,1.4-1.1C325.2,82.3,325.8,82.2,326.5,82.2L326.5,82.2z M337.2,82.2c1.3,0,2.3,0.3,3,1c0.7,0.6,1.1,1.6,1.1,2.9
			v5.7h-1.6v-1.3c-0.3,0.4-0.7,0.8-1.2,1c-0.5,0.2-1.2,0.3-1.9,0.3c-1.1,0-1.9-0.3-2.6-0.8c-0.6-0.5-1-1.2-1-2c0-0.8,0.3-1.5,0.9-2
			c0.6-0.5,1.6-0.8,2.9-0.8h2.7V86c0-0.7-0.2-1.3-0.6-1.7c-0.4-0.4-1.1-0.6-1.9-0.6c-0.6,0-1.1,0.1-1.7,0.3s-1,0.4-1.4,0.7l-0.7-1.3
			c0.5-0.4,1.1-0.7,1.8-0.9C335.7,82.3,336.4,82.2,337.2,82.2L337.2,82.2z M336.8,90.6c0.7,0,1.2-0.1,1.7-0.4c0.5-0.3,0.8-0.7,1-1.2
			v-1.3h-2.7c-1.5,0-2.2,0.5-2.2,1.5c0,0.5,0.2,0.9,0.6,1.1C335.6,90.4,336.1,90.6,336.8,90.6z M356.5,82.2c1.2,0,2.2,0.3,2.9,1
			c0.7,0.7,1.1,1.7,1.1,3.1v5.5h-1.7v-5.3c0-0.9-0.2-1.6-0.6-2.1c-0.4-0.5-1-0.7-1.8-0.7c-0.9,0-1.6,0.3-2.1,0.8
			c-0.5,0.5-0.8,1.3-0.8,2.3v4.9h-1.7v-5.3c0-0.9-0.2-1.6-0.6-2.1c-0.4-0.5-1-0.7-1.8-0.7c-0.9,0-1.6,0.3-2.1,0.8
			c-0.5,0.5-0.8,1.3-0.8,2.3v4.9h-1.7v-9.5h1.7v1.4c0.3-0.5,0.8-0.9,1.4-1.1c0.6-0.3,1.2-0.4,1.9-0.4c0.7,0,1.4,0.1,2,0.4
			c0.6,0.3,1,0.7,1.3,1.3c0.4-0.5,0.9-1,1.5-1.3C354.9,82.4,355.7,82.2,356.5,82.2L356.5,82.2z M375.5,82.2c1.2,0,2.2,0.3,2.9,1
			c0.7,0.7,1.1,1.7,1.1,3.1v5.5h-1.7v-5.3c0-0.9-0.2-1.6-0.6-2.1c-0.4-0.5-1-0.7-1.8-0.7c-0.9,0-1.6,0.3-2.1,0.8
			c-0.5,0.5-0.8,1.3-0.8,2.3v4.9h-1.7v-5.3c0-0.9-0.2-1.6-0.6-2.1c-0.4-0.5-1-0.7-1.8-0.7c-0.9,0-1.6,0.3-2.1,0.8
			c-0.5,0.5-0.8,1.3-0.8,2.3v4.9h-1.7v-9.5h1.7v1.4c0.3-0.5,0.8-0.9,1.4-1.1c0.6-0.3,1.2-0.4,1.9-0.4c0.7,0,1.4,0.1,2,0.4
			c0.6,0.3,1,0.7,1.3,1.3c0.4-0.5,0.9-1,1.5-1.3C374,82.4,374.7,82.2,375.5,82.2L375.5,82.2z M391.4,87.1c0,0.1,0,0.3,0,0.5h-7.8
			c0.1,0.8,0.5,1.5,1.1,2c0.6,0.5,1.4,0.8,2.4,0.8c1.1,0,2.1-0.4,2.8-1.1l1,1.1c-0.4,0.5-1,0.9-1.6,1.1s-1.4,0.4-2.2,0.4
			c-1,0-1.9-0.2-2.7-0.6c-0.8-0.4-1.4-1-1.8-1.7c-0.4-0.7-0.6-1.6-0.6-2.5c0-0.9,0.2-1.7,0.6-2.5c0.4-0.7,1-1.3,1.7-1.7
			c0.7-0.4,1.5-0.6,2.5-0.6c0.9,0,1.7,0.2,2.4,0.6c0.7,0.4,1.3,1,1.7,1.7C391.2,85.3,391.4,86.2,391.4,87.1L391.4,87.1z M386.6,83.7
			c-0.8,0-1.5,0.3-2.1,0.8c-0.6,0.5-0.9,1.2-1,2h6.1c-0.1-0.8-0.4-1.5-1-2C388.2,83.9,387.5,83.7,386.6,83.7L386.6,83.7z
			 M402.8,78.5v13.3h-1.7v-1.5c-0.4,0.5-0.9,0.9-1.5,1.2c-0.6,0.3-1.2,0.4-1.9,0.4c-0.9,0-1.8-0.2-2.5-0.6s-1.3-1-1.7-1.7
			c-0.4-0.7-0.6-1.6-0.6-2.5c0-1,0.2-1.8,0.6-2.5c0.4-0.7,1-1.3,1.7-1.7s1.6-0.6,2.5-0.6c0.7,0,1.3,0.1,1.9,0.4
			c0.6,0.3,1.1,0.6,1.4,1.1v-5.2L402.8,78.5L402.8,78.5z M397.9,90.4c0.6,0,1.1-0.1,1.6-0.4c0.5-0.3,0.9-0.7,1.2-1.2
			c0.3-0.5,0.4-1.1,0.4-1.7s-0.1-1.2-0.4-1.7c-0.3-0.5-0.7-0.9-1.2-1.2s-1-0.4-1.6-0.4c-0.6,0-1.2,0.1-1.7,0.4
			c-0.5,0.3-0.9,0.7-1.2,1.2c-0.3,0.5-0.4,1.1-0.4,1.7s0.1,1.2,0.4,1.7c0.3,0.5,0.7,0.9,1.2,1.2C396.7,90.3,397.2,90.4,397.9,90.4z
			 M414.9,91.9c-1,0-1.9-0.1-2.8-0.4c-0.9-0.3-1.6-0.7-2.1-1.1l0.7-1.4c0.5,0.4,1.1,0.8,1.9,1c0.8,0.3,1.5,0.4,2.3,0.4
			c1,0,1.8-0.2,2.3-0.5s0.8-0.8,0.8-1.4c0-0.4-0.1-0.8-0.4-1c-0.3-0.3-0.6-0.5-1-0.6c-0.4-0.1-1-0.3-1.8-0.5c-1-0.2-1.7-0.5-2.3-0.7
			c-0.6-0.2-1.1-0.6-1.5-1s-0.6-1.1-0.6-1.9c0-0.7,0.2-1.3,0.5-1.8c0.4-0.5,0.9-1,1.6-1.3c0.7-0.3,1.6-0.5,2.7-0.5
			c0.7,0,1.5,0.1,2.2,0.3c0.7,0.2,1.3,0.5,1.9,0.8l-0.6,1.4c-0.5-0.3-1.1-0.6-1.7-0.8c-0.6-0.2-1.2-0.3-1.8-0.3
			c-1,0-1.8,0.2-2.3,0.6c-0.5,0.4-0.8,0.8-0.8,1.4c0,0.4,0.1,0.8,0.4,1c0.3,0.3,0.6,0.5,1.1,0.6c0.4,0.1,1,0.3,1.7,0.5
			c1,0.2,1.7,0.5,2.3,0.7c0.6,0.2,1.1,0.6,1.5,1c0.4,0.5,0.6,1.1,0.6,1.9c0,0.7-0.2,1.3-0.5,1.8c-0.4,0.5-0.9,1-1.6,1.3
			C416.8,91.8,415.9,91.9,414.9,91.9L414.9,91.9z M435.3,88.7h-6.7l-1.4,3.1h-1.9l5.7-12.5h1.8l5.7,12.5h-1.9L435.3,88.7L435.3,88.7
			z M434.7,87.2l-2.7-6.1l-2.7,6.1C429.2,87.2,434.7,87.2,434.7,87.2z M440.2,78.5h1.7v13.3h-1.7V78.5z M448.7,82.2
			c1.3,0,2.3,0.3,3,1c0.7,0.6,1.1,1.6,1.1,2.9v5.7h-1.6v-1.3c-0.3,0.4-0.7,0.8-1.2,1c-0.5,0.2-1.2,0.3-1.9,0.3
			c-1.1,0-1.9-0.3-2.6-0.8c-0.6-0.5-1-1.2-1-2c0-0.8,0.3-1.5,0.9-2c0.6-0.5,1.6-0.8,2.9-0.8h2.7V86c0-0.7-0.2-1.3-0.6-1.7
			c-0.4-0.4-1.1-0.6-1.9-0.6c-0.6,0-1.1,0.1-1.7,0.3s-1,0.4-1.4,0.7l-0.7-1.3c0.5-0.4,1.1-0.7,1.8-0.9
			C447.2,82.3,447.9,82.2,448.7,82.2L448.7,82.2z M448.3,90.6c0.7,0,1.2-0.1,1.7-0.4c0.5-0.3,0.8-0.7,1-1.2v-1.3h-2.7
			c-1.5,0-2.2,0.5-2.2,1.5c0,0.5,0.2,0.9,0.6,1.1C447.1,90.4,447.7,90.6,448.3,90.6z M461.1,82.2c1.2,0,2.2,0.3,2.9,1
			c0.7,0.7,1.1,1.7,1.1,3.1v5.5h-1.7v-5.3c0-0.9-0.2-1.6-0.7-2.1c-0.4-0.5-1.1-0.7-1.9-0.7c-0.9,0-1.7,0.3-2.2,0.8
			c-0.5,0.5-0.8,1.3-0.8,2.3v4.9H456v-9.5h1.7v1.4c0.3-0.5,0.8-0.9,1.4-1.1C459.7,82.4,460.4,82.2,461.1,82.2L461.1,82.2z
			 M471.8,82.2c1.3,0,2.3,0.3,3,1c0.7,0.6,1.1,1.6,1.1,2.9v5.7h-1.6v-1.3c-0.3,0.4-0.7,0.8-1.2,1c-0.5,0.2-1.2,0.3-1.9,0.3
			c-1.1,0-1.9-0.3-2.6-0.8c-0.6-0.5-1-1.2-1-2c0-0.8,0.3-1.5,0.9-2s1.6-0.8,2.9-0.8h2.7V86c0-0.7-0.2-1.3-0.6-1.7
			c-0.4-0.4-1.1-0.6-1.9-0.6c-0.6,0-1.1,0.1-1.7,0.3s-1,0.4-1.4,0.7l-0.7-1.3c0.5-0.4,1.1-0.7,1.8-0.9
			C470.3,82.3,471,82.2,471.8,82.2L471.8,82.2z M471.4,90.6c0.7,0,1.2-0.1,1.7-0.4c0.5-0.3,0.8-0.7,1-1.2v-1.3h-2.7
			c-1.5,0-2.2,0.5-2.2,1.5c0,0.5,0.2,0.9,0.6,1.1C470.2,90.4,470.7,90.6,471.4,90.6z M486.2,90.4v1.4h-8v-1.1l5.6-7h-5.5v-1.4h7.8
			v1.1l-5.6,6.9H486.2L486.2,90.4z M488.5,82.3h1.7v9.5h-1.7V82.3z M489.4,80.5c-0.3,0-0.6-0.1-0.8-0.3c-0.2-0.2-0.3-0.5-0.3-0.8
			c0-0.3,0.1-0.6,0.3-0.8c0.2-0.2,0.5-0.3,0.8-0.3c0.3,0,0.6,0.1,0.8,0.3c0.2,0.2,0.3,0.5,0.3,0.8c0,0.3-0.1,0.6-0.3,0.8
			C490,80.4,489.7,80.5,489.4,80.5L489.4,80.5z M504.3,91.9c-1.3,0-2.4-0.3-3.4-0.8c-1-0.6-1.8-1.3-2.4-2.3c-0.6-1-0.9-2.1-0.9-3.3
			s0.3-2.3,0.9-3.3c0.6-1,1.4-1.7,2.4-2.3c1-0.6,2.2-0.8,3.4-0.8c1,0,1.9,0.2,2.7,0.5c0.8,0.3,1.5,0.8,2.1,1.5l-1.2,1.1
			c-1-1-2.1-1.5-3.6-1.5c-0.9,0-1.8,0.2-2.5,0.6c-0.8,0.4-1.4,1-1.8,1.7s-0.6,1.6-0.6,2.5s0.2,1.7,0.6,2.5c0.4,0.7,1,1.3,1.8,1.7
			c0.8,0.4,1.6,0.6,2.5,0.6c1.4,0,2.6-0.5,3.6-1.5l1.2,1.1c-0.6,0.6-1.3,1.1-2.1,1.5C506.2,91.8,505.3,91.9,504.3,91.9L504.3,91.9z
			 M515.1,91.9c-1,0-1.8-0.2-2.6-0.6c-0.8-0.4-1.4-1-1.8-1.7c-0.4-0.7-0.6-1.6-0.6-2.5c0-0.9,0.2-1.8,0.6-2.5c0.4-0.7,1-1.3,1.8-1.7
			c0.8-0.4,1.6-0.6,2.6-0.6c1,0,1.8,0.2,2.6,0.6c0.8,0.4,1.3,1,1.8,1.7c0.4,0.7,0.6,1.6,0.6,2.5c0,0.9-0.2,1.8-0.6,2.5
			c-0.4,0.7-1,1.3-1.8,1.7C517,91.7,516.1,91.9,515.1,91.9z M515.1,90.4c0.6,0,1.2-0.1,1.7-0.4s0.9-0.7,1.1-1.2
			c0.3-0.5,0.4-1.1,0.4-1.7s-0.1-1.2-0.4-1.7c-0.3-0.5-0.7-0.9-1.1-1.2s-1-0.4-1.7-0.4c-0.6,0-1.2,0.1-1.7,0.4
			c-0.5,0.3-0.9,0.7-1.2,1.2c-0.3,0.5-0.4,1.1-0.4,1.7s0.1,1.2,0.4,1.7c0.3,0.5,0.7,0.9,1.2,1.2C514,90.3,514.5,90.4,515.1,90.4z
			 M527.6,82.2c1.2,0,2.2,0.3,2.9,1s1.1,1.7,1.1,3.1v5.5h-1.7v-5.3c0-0.9-0.2-1.6-0.7-2.1c-0.4-0.5-1.1-0.7-1.9-0.7
			c-0.9,0-1.7,0.3-2.2,0.8c-0.5,0.5-0.8,1.3-0.8,2.3v4.9h-1.7v-9.5h1.7v1.4c0.3-0.5,0.8-0.9,1.4-1.1S526.9,82.2,527.6,82.2
			L527.6,82.2z M540.2,91.2c-0.3,0.2-0.6,0.4-0.9,0.5c-0.4,0.1-0.8,0.2-1.2,0.2c-1,0-1.7-0.3-2.2-0.8c-0.5-0.5-0.8-1.2-0.8-2.2v-5.2
			h-1.6v-1.4h1.6v-2.1h1.7v2.1h2.7v1.4h-2.7v5.1c0,0.5,0.1,0.9,0.4,1.2s0.6,0.4,1.1,0.4c0.5,0,1-0.1,1.4-0.4L540.2,91.2L540.2,91.2z
			 M543.9,83.9c0.3-0.5,0.7-1,1.3-1.3c0.6-0.3,1.3-0.4,2.1-0.4v1.7c-0.1,0-0.2,0-0.4,0c-0.9,0-1.7,0.3-2.2,0.8
			c-0.5,0.6-0.8,1.3-0.8,2.4v4.7h-1.7v-9.5h1.7V83.9L543.9,83.9z M553,82.2c1.3,0,2.3,0.3,3,1c0.7,0.6,1.1,1.6,1.1,2.9v5.7h-1.6
			v-1.3c-0.3,0.4-0.7,0.8-1.2,1c-0.5,0.2-1.2,0.3-1.9,0.3c-1.1,0-1.9-0.3-2.6-0.8c-0.6-0.5-1-1.2-1-2c0-0.8,0.3-1.5,0.9-2
			c0.6-0.5,1.6-0.8,2.9-0.8h2.7V86c0-0.7-0.2-1.3-0.6-1.7c-0.4-0.4-1.1-0.6-1.9-0.6c-0.6,0-1.1,0.1-1.7,0.3s-1,0.4-1.4,0.7l-0.7-1.3
			c0.5-0.4,1.1-0.7,1.8-0.9C551.5,82.3,552.2,82.2,553,82.2L553,82.2z M552.6,90.6c0.7,0,1.2-0.1,1.7-0.4c0.5-0.3,0.8-0.7,1-1.2
			v-1.3h-2.7c-1.5,0-2.2,0.5-2.2,1.5c0,0.5,0.2,0.9,0.6,1.1S552,90.6,552.6,90.6z M564.5,91.9c-1,0-1.8-0.2-2.6-0.6
			c-0.8-0.4-1.4-1-1.8-1.7c-0.4-0.7-0.6-1.6-0.6-2.5c0-0.9,0.2-1.8,0.6-2.5c0.4-0.7,1-1.3,1.8-1.7c0.8-0.4,1.6-0.6,2.6-0.6
			c0.9,0,1.6,0.2,2.3,0.5c0.7,0.3,1.2,0.8,1.6,1.5l-1.3,0.8c-0.3-0.5-0.7-0.8-1.1-1c-0.4-0.2-0.9-0.3-1.5-0.3
			c-0.6,0-1.2,0.1-1.7,0.4c-0.5,0.3-0.9,0.7-1.2,1.2c-0.3,0.5-0.4,1.1-0.4,1.7c0,0.7,0.1,1.3,0.4,1.8c0.3,0.5,0.7,0.9,1.2,1.2
			c0.5,0.3,1.1,0.4,1.7,0.4c0.5,0,1-0.1,1.5-0.3c0.4-0.2,0.8-0.6,1.1-1l1.3,0.8c-0.4,0.7-0.9,1.2-1.6,1.5
			C566.2,91.7,565.4,91.9,564.5,91.9z M576.2,91.2c-0.3,0.2-0.6,0.4-0.9,0.5c-0.4,0.1-0.8,0.2-1.2,0.2c-1,0-1.7-0.3-2.2-0.8
			c-0.5-0.5-0.8-1.2-0.8-2.2v-5.2h-1.6v-1.4h1.6v-2.1h1.7v2.1h2.7v1.4h-2.7v5.1c0,0.5,0.1,0.9,0.4,1.2s0.6,0.4,1.1,0.4
			c0.5,0,1-0.1,1.4-0.4L576.2,91.2L576.2,91.2z M578.3,82.3h1.7v9.5h-1.7C578.3,91.8,578.3,82.3,578.3,82.3z M579.1,80.5
			c-0.3,0-0.6-0.1-0.8-0.3s-0.3-0.5-0.3-0.8c0-0.3,0.1-0.6,0.3-0.8c0.2-0.2,0.5-0.3,0.8-0.3c0.3,0,0.6,0.1,0.8,0.3
			c0.2,0.2,0.3,0.5,0.3,0.8c0,0.3-0.1,0.6-0.3,0.8C579.8,80.4,579.5,80.5,579.1,80.5L579.1,80.5z M588.4,82.2c1.2,0,2.2,0.3,2.9,1
			c0.7,0.7,1.1,1.7,1.1,3.1v5.5h-1.7v-5.3c0-0.9-0.2-1.6-0.7-2.1c-0.4-0.5-1.1-0.7-1.9-0.7c-0.9,0-1.7,0.3-2.2,0.8
			c-0.5,0.5-0.8,1.3-0.8,2.3v4.9h-1.7v-9.5h1.7v1.4c0.3-0.5,0.8-0.9,1.4-1.1S587.7,82.2,588.4,82.2L588.4,82.2z M604.8,82.3v8.2
			c0,1.7-0.4,2.9-1.2,3.7c-0.8,0.8-2.1,1.2-3.7,1.2c-0.9,0-1.8-0.1-2.6-0.4c-0.8-0.2-1.5-0.6-2-1l0.8-1.3c0.4,0.4,1,0.7,1.7,0.9
			c0.7,0.2,1.3,0.3,2,0.3c1.1,0,1.9-0.3,2.5-0.8c0.5-0.5,0.8-1.3,0.8-2.4v-0.8c-0.4,0.5-0.9,0.9-1.5,1.1c-0.6,0.2-1.2,0.4-1.9,0.4
			c-0.9,0-1.7-0.2-2.5-0.6c-0.7-0.4-1.3-0.9-1.7-1.6c-0.4-0.7-0.6-1.5-0.6-2.4c0-0.9,0.2-1.7,0.6-2.4c0.4-0.7,1-1.2,1.7-1.6
			s1.6-0.6,2.5-0.6c0.7,0,1.4,0.1,2,0.4c0.6,0.3,1.1,0.7,1.5,1.2v-1.5L604.8,82.3L604.8,82.3z M599.8,89.9c0.6,0,1.2-0.1,1.7-0.4
			c0.5-0.3,0.9-0.6,1.2-1.1c0.3-0.5,0.4-1,0.4-1.6c0-0.9-0.3-1.7-0.9-2.2c-0.6-0.6-1.4-0.9-2.4-0.9c-1,0-1.8,0.3-2.4,0.9
			c-0.6,0.6-0.9,1.3-0.9,2.2c0,0.6,0.1,1.1,0.4,1.6c0.3,0.5,0.7,0.8,1.2,1.1C598.6,89.8,599.2,89.9,599.8,89.9L599.8,89.9z
			 M622.4,90.2v1.6h-9.2V79.3h8.9v1.6H615v3.8h6.3v1.5H615v4H622.4L622.4,90.2z"/>
		<path class="st1" d="M627.7,91.9c-0.8,0-1.5-0.1-2.3-0.3c-0.7-0.2-1.3-0.5-1.7-0.8l0.7-1.4c0.4,0.3,0.9,0.5,1.5,0.7
			c0.6,0.2,1.2,0.3,1.8,0.3c1.5,0,2.3-0.4,2.3-1.3c0-0.3-0.1-0.5-0.3-0.7c-0.2-0.2-0.5-0.3-0.8-0.4c-0.3-0.1-0.7-0.2-1.3-0.3
			c-0.8-0.1-1.4-0.3-1.9-0.4c-0.5-0.2-0.9-0.4-1.3-0.8s-0.5-0.9-0.5-1.6c0-0.9,0.4-1.5,1.1-2.1c0.7-0.5,1.7-0.8,2.9-0.8
			c0.6,0,1.3,0.1,1.9,0.2c0.6,0.2,1.2,0.4,1.6,0.6l-0.7,1.4c-0.8-0.5-1.7-0.8-2.8-0.8c-0.7,0-1.3,0.1-1.7,0.4
			c-0.4,0.2-0.6,0.6-0.6,0.9c0,0.3,0.1,0.6,0.3,0.7c0.2,0.2,0.5,0.3,0.8,0.4c0.3,0.1,0.8,0.2,1.3,0.3c0.8,0.1,1.4,0.3,1.9,0.4
			c0.5,0.1,0.9,0.4,1.2,0.8c0.3,0.4,0.5,0.9,0.5,1.5c0,0.9-0.4,1.5-1.1,2.1C630,91.7,629,91.9,627.7,91.9L627.7,91.9z M639.4,91.2
			c-0.3,0.2-0.6,0.4-0.9,0.5c-0.4,0.1-0.8,0.2-1.2,0.2c-1,0-1.7-0.3-2.2-0.8c-0.5-0.5-0.8-1.2-0.8-2.2v-5.2h-1.6v-1.4h1.6v-2.1h1.7
			v2.1h2.7v1.4H636v5.1c0,0.5,0.1,0.9,0.4,1.2s0.6,0.4,1.1,0.4c0.5,0,1-0.1,1.4-0.4L639.4,91.2L639.4,91.2z M642.1,91.9
			c-0.3,0-0.6-0.1-0.9-0.3s-0.4-0.5-0.4-0.9c0-0.3,0.1-0.6,0.4-0.9c0.2-0.2,0.5-0.3,0.9-0.3s0.6,0.1,0.8,0.3
			c0.2,0.2,0.3,0.5,0.3,0.9s-0.1,0.7-0.4,0.9C642.7,91.8,642.4,91.9,642.1,91.9L642.1,91.9z"/>
	</g>
	<rect x="129.3" y="14.7" class="st2" width="1.5" height="93.6"/>
	<path class="st3" d="M10.5,39.7c-0.6,3.3-0.4,30.7,0.3,33.9c2,10.1,9.5,14,20.8,14c11.2,0,19-3.7,21-13.9c0.7-3.7,1-30.5,0.3-34.1
		l-14.2,0c-0.4,6.7-0.1,14.7-0.1,21.5c0,6.8,1,14.8-7,14.7c-8-0.1-6.8-8.3-6.8-15.1c0-4.7,0.6-17.3-0.2-21.2L10.5,39.7L10.5,39.7z"
		/>
	<path class="st4" d="M65.4,2.1c-1.7,1.7-11.2,19-13.2,22.5l5.5,0.1l0,16c0,9.7-1.2,26.3,2.3,33.9c1.4,3.1,3.4,7.4,7,8
		c7.8,1.2,18.8-1.8,22.4-6.7c-5.5,1-8.7,0.9-12.6-2.3c-3.2-2.7-4.8-5.8-4.8-11.8c0-4.6-0.4-34.7,0.4-36.9l5.8-0.1
		C77.2,22,67.5,5.7,65.4,2.1L65.4,2.1z"/>
	<path class="st3" d="M75,54.8c1.9-0.7,2.3-3.1,7.5-4.2c3.6-0.7,6.7,0.2,9.3,1.7c4.3,2.5,8,9,5.2,15.9
		c-4.6,11.3-15.9,17.8-28.5,16.6c2,2.7,8.1,4.9,12.5,5.6c26.7,3.7,42.8-29.2,21.5-48c-5.8-5.1-18.1-8.8-27.5-4.5L75,54.8L75,54.8z"
		/>
	<path class="st3" d="M57.7,120.3c2.5-1.3,5.4-4.3,7.9-6.2c4.1-3.2,6.4-4.1,6.4-7.5l0-15.8c-3.2-0.9-5.8-3-8.1-4.9
		c-3.4-2.7-4.5-5-6.2-6.7L57.7,120.3L57.7,120.3z"/>
</g>
</svg>
