<svg xmlns="http://www.w3.org/2000/svg" width="102.25" height="118.21" viewBox="0 0 102.25 118.21"><defs><style>.cls-1{fill:#003d7f;}.cls-1,.cls-2{fill-rule:evenodd;}.cls-2{fill:#00a89f;}</style></defs><g id="Layer_2" data-name="Layer 2"><g id="Layer_1-2" data-name="Layer 1"><path class="cls-1" d="M.35,37.59C-.26,40.87,0,68.29.63,71.5c2,10.07,9.48,14,20.83,14s19-3.7,20.95-13.9c.7-3.68,1-30.46.29-34l-14.21,0c-.42,6.74-.06,14.65-.06,21.52s1,14.8-7,14.66-6.82-8.34-6.82-15.06c0-4.73.59-17.35-.18-21.16l-14.1.06Z"/><path class="cls-2" d="M55.22,0C53.54,1.69,44,19,42.07,22.49l5.45.13,0,16c0,9.7-1.16,26.26,2.3,33.87,1.4,3.07,3.36,7.39,7,8,7.8,1.24,18.78-1.79,22.42-6.74-5.55,1-8.69.93-12.59-2.34-3.18-2.68-4.78-5.77-4.78-11.84,0-4.59-.45-34.69.36-36.9l5.81-.11C67,19.88,57.36,3.61,55.22,0Z"/><path class="cls-1" d="M64.9,52.76c1.93-.74,2.25-3.11,7.51-4.15a13.22,13.22,0,0,1,9.31,1.7,12.92,12.92,0,0,1,5.15,15.93c-4.58,11.32-16,17.8-28.5,16.62,2,2.66,8.12,4.94,12.53,5.55,26.68,3.71,42.82-29.23,21.53-48C86.66,35.28,74.31,31.55,65,35.91l0,16.85Z"/><path class="cls-1" d="M47.58,118.21c2.52-1.32,5.43-4.34,7.87-6.22,4.09-3.16,6.41-4.14,6.41-7.48l0-15.75c-3.2-.89-5.75-3-8.1-4.93-3.36-2.69-4.46-5-6.22-6.68v41.06Z"/></g></g></svg>