<svg xmlns="http://www.w3.org/2000/svg" width="496.28" height="39.26" viewBox="0 0 496.28 39.26"><defs><style>.cls-1{fill:#00a89f;}.cls-2{fill:#003d7f;}</style></defs><g id="Layer_2" data-name="Layer 2"><g id="Layer_1-2" data-name="Layer 1"><g id="_2165949218144" data-name=" 2165949218144"><path class="cls-1" d="M17.28,39.26q-8.18,0-12.73-4.53T0,21.81V.44H8.83v21q0,10.26,8.51,10.25a7.94,7.94,0,0,0,6.32-2.48c1.46-1.65,2.18-4.24,2.18-7.77V.44h8.73V21.81q0,8.4-4.55,12.92T17.28,39.26Zm50.33-.66L60.25,28H52.13V38.6H43.29V.44H59.81a21.18,21.18,0,0,1,8.81,1.69,13,13,0,0,1,5.75,4.79,13.22,13.22,0,0,1,2,7.37,12.9,12.9,0,0,1-2,7.33,12.94,12.94,0,0,1-5.8,4.72L77.1,38.6Zm-.16-24.31a6.06,6.06,0,0,0-2.07-4.94,9.33,9.33,0,0,0-6.06-1.72H52.13V20.94h7.19c2.66,0,4.67-.58,6.06-1.75a6,6,0,0,0,2.07-4.9Zm43.94,4.47a10.08,10.08,0,0,1,5.13,3.46,9.53,9.53,0,0,1,1.85,6,8.8,8.8,0,0,1-3.9,7.71q-3.89,2.7-11.36,2.7H83.37V.44H102q7,0,10.71,2.67a8.45,8.45,0,0,1,3.73,7.25,9.3,9.3,0,0,1-1.33,5A9.36,9.36,0,0,1,111.39,18.76ZM92.15,7.09v9h8.78a8.9,8.9,0,0,0,5-1.14,3.83,3.83,0,0,0,1.69-3.38,3.76,3.76,0,0,0-1.69-3.35,9,9,0,0,0-5-1.12ZM102.45,32a9.8,9.8,0,0,0,5.26-1.14,3.93,3.93,0,0,0,1.78-3.55q0-4.74-7-4.74H92.15V32Zm47.77-1.52H132.5l-3.38,8.17h-9.06l17-38.16h8.72L162.87,38.6H153.6l-3.38-8.17Zm-2.78-6.71L141.38,9.11l-6,14.61ZM201.85.44V38.6H194.6l-19-23.17V38.6h-8.72V.44h7.3l19,23.17V.44Z"/><path class="cls-2" d="M227,.44Q234.4.44,238.66,4a12,12,0,0,1,4.25,9.76,12,12,0,0,1-4.25,9.76Q234.4,27,227,27.05h-9.44V38.6H212.1V.44Zm-.17,21.86c3.46,0,6.09-.73,7.91-2.21a7.69,7.69,0,0,0,2.73-6.35,7.69,7.69,0,0,0-2.73-6.35c-1.82-1.47-4.45-2.21-7.91-2.21h-9.27V22.3Zm49.62,16.3-8.23-11.72c-1,.07-1.82.11-2.4.11h-9.43V38.6h-5.46V.44h14.89q7.41,0,11.67,3.54a12,12,0,0,1,4.25,9.76,12.82,12.82,0,0,1-2.18,7.53,12.29,12.29,0,0,1-6.22,4.52l9.05,12.81ZM265.65,22.36q5.18,0,7.9-2.24a7.78,7.78,0,0,0,2.73-6.38,7.69,7.69,0,0,0-2.73-6.35q-2.73-2.2-7.9-2.21h-9.27V22.36ZM307.79,39a21.23,21.23,0,0,1-10.41-2.54,18.71,18.71,0,0,1-7.28-7,19.27,19.27,0,0,1-2.65-10,19.27,19.27,0,0,1,2.65-10,18.71,18.71,0,0,1,7.28-7,22.5,22.5,0,0,1,20.77,0,18.51,18.51,0,0,1,7.25,7,19.26,19.26,0,0,1,2.62,10,19.33,19.33,0,0,1-2.62,10,18.56,18.56,0,0,1-7.25,7A21.12,21.12,0,0,1,307.79,39Zm0-4.85a15,15,0,0,0,7.55-1.91A14,14,0,0,0,320.63,27a14.76,14.76,0,0,0,1.94-7.5,14.76,14.76,0,0,0-1.94-7.5,14,14,0,0,0-5.29-5.26,15,15,0,0,0-7.55-1.91,15.29,15.29,0,0,0-7.6,1.91A13.87,13.87,0,0,0,294.84,12a14.75,14.75,0,0,0-1.93,7.5,14.75,14.75,0,0,0,1.93,7.5,13.87,13.87,0,0,0,5.35,5.26A15.29,15.29,0,0,0,307.79,34.19ZM340.45,39a14.35,14.35,0,0,1-6.38-1.44,12.17,12.17,0,0,1-4.74-4.07l3.16-3.7q3.17,4.52,8,4.52a6,6,0,0,0,4.88-2A8.74,8.74,0,0,0,347,26.61V5.18H333.2V.44h19.19v25.9q0,6.32-3,9.51T340.45,39Zm50.77-5.18V38.6h-27.7V.44h26.93V5.18H369V16.9h19.14v4.64H369V33.86ZM417,39a21,21,0,0,1-10.33-2.54,18.71,18.71,0,0,1-7.23-7,19.41,19.41,0,0,1-2.61-10,19.35,19.35,0,0,1,2.61-10,18.61,18.61,0,0,1,7.26-7A21.22,21.22,0,0,1,417,0a21.57,21.57,0,0,1,8.17,1.5,16.76,16.76,0,0,1,6.33,4.44L428,9.38a14.24,14.24,0,0,0-10.75-4.53,15.57,15.57,0,0,0-7.68,1.91A13.88,13.88,0,0,0,404.16,12a14.75,14.75,0,0,0-1.93,7.5,14.75,14.75,0,0,0,1.93,7.5,14,14,0,0,0,5.38,5.26,15.57,15.57,0,0,0,7.68,1.91A14.27,14.27,0,0,0,428,29.61L431.51,33a17,17,0,0,1-6.35,4.48A21.66,21.66,0,0,1,417,39Zm29.5-33.86H433.36V.44h31.57V5.18H451.85V38.6h-5.4ZM481.51,39a26.17,26.17,0,0,1-8.32-1.34,17,17,0,0,1-6.29-3.46l2-4.25a16.8,16.8,0,0,0,5.59,3.19,20.5,20.5,0,0,0,7,1.23q4.74,0,7.09-1.61a5,5,0,0,0,2.34-4.28,4.22,4.22,0,0,0-1.28-3.19,8.52,8.52,0,0,0-3.16-1.88q-1.89-.66-5.32-1.48a54.71,54.71,0,0,1-6.95-2.07,11.52,11.52,0,0,1-4.53-3.19,8.52,8.52,0,0,1-1.88-5.8,9.83,9.83,0,0,1,1.61-5.51,11,11,0,0,1,4.88-3.93A19.81,19.81,0,0,1,482.43,0a25.85,25.85,0,0,1,6.66.87,17.62,17.62,0,0,1,5.61,2.51l-1.8,4.36a19.86,19.86,0,0,0-5.12-2.32,19.42,19.42,0,0,0-5.35-.79c-3.09,0-5.4.57-6.95,1.69a5.21,5.21,0,0,0-2.32,4.37,4.18,4.18,0,0,0,1.31,3.19,9.12,9.12,0,0,0,3.25,1.9A49.14,49.14,0,0,0,483,17.23a53.08,53.08,0,0,1,6.92,2.07,11.66,11.66,0,0,1,4.5,3.16,8.36,8.36,0,0,1,1.88,5.73,9.76,9.76,0,0,1-1.63,5.48,11,11,0,0,1-5,3.92A20.35,20.35,0,0,1,481.51,39Z"/></g></g></g></svg>